<svg width="24" height="24" viewBox="0 0 24 24" fill="none" xmlns="http://www.w3.org/2000/svg">
<path d="M20.7796 3.21896C20.6784 3.11871 20.5507 3.04916 20.4116 3.01837C20.2725 2.98757 20.1275 2.99685 19.9934 3.04501L3.49338 9.04501C3.35061 9.09695 3.22701 9.19097 3.13889 9.31472C3.05076 9.43847 3.00249 9.58607 3.00009 9.73797C2.99771 9.88979 3.04124 10.0387 3.12534 10.1652C3.20944 10.2916 3.33009 10.3895 3.47104 10.4459L10.6711 13.3275L13.5532 20.5275C13.6089 20.6665 13.7049 20.7856 13.829 20.8696C13.953 20.9535 14.0996 20.9985 14.2494 20.9985H14.2614C14.4133 20.9961 14.5607 20.9476 14.6844 20.8595C14.8082 20.7714 14.9024 20.6477 14.9543 20.5049L20.9543 4.00494C21.0029 3.87087 21.0124 3.72576 20.9814 3.58654C20.9505 3.44733 20.8805 3.3198 20.7796 3.21896ZM14.2171 18.144L12.1305 12.9269L15.7501 9.30749L14.6895 8.24996L11.0699 11.8695L5.85288 9.78292L18.9962 5.00396L14.2171 18.144Z" fill="#1F2937"/>
</svg>
