<svg width="24" height="24" viewBox="0 0 24 24" fill="none" xmlns="http://www.w3.org/2000/svg">
<path d="M21 17.907H3V16.1395H3.9V9.98088C3.9 5.57288 7.527 2 12 2C16.473 2 20.1 5.57288 20.1 9.98088V16.1395H21V17.907ZM5.7 16.1395H18.3V9.98088C18.3 6.5494 15.4794 3.76744 12 3.76744C8.5206 3.76744 5.7 6.5494 5.7 9.98088V16.1395ZM9.75 18.7907H14.25C14.25 19.3766 14.0129 19.9386 13.591 20.3529C13.169 20.7672 12.5967 21 12 21C11.4033 21 10.831 20.7672 10.409 20.3529C9.98705 19.9386 9.75 19.3766 9.75 18.7907Z" fill="black"/>
</svg>
