<svg id="Capa_1" enable-background="new 0 0 512 512" height="512" viewBox="0 0 512 512" width="512" xmlns="http://www.w3.org/2000/svg"><g><path d="m254.732 207.877c-3.384-1.414-7.247-.648-9.839 1.947-2.592 2.596-3.349 6.459-1.93 9.842.023.057.048.111.072.167l28.603 63.793c1.248 2.783 3.983 4.434 6.848 4.434 1.026 0 2.068-.212 3.064-.658 3.779-1.695 5.47-6.133 3.775-9.912l-5.009-11.171 20.949-20.949 11.122 5.027c3.775 1.706 8.217.029 9.923-3.745s.029-8.217-3.745-9.923l-63.634-28.765c-.065-.03-.132-.06-.199-.087zm31.924 30.888-12.906 12.906-10.538-23.504z"/><path d="m285.494 169.879c-1.524 2.906-.982 6.467 1.338 8.788l46.771 46.77c1.465 1.464 3.385 2.196 5.304 2.196s3.839-.732 5.304-2.196c2.929-2.93 2.929-7.678 0-10.607l-29.759-29.757 53.753 9.838c3.86.707 7.466-.95 9.174-4.213 1.748-3.336.997-7.372-1.964-10.333l-45.716-44.841c-2.956-2.899-7.705-2.854-10.606.102-2.9 2.957-2.855 7.706.102 10.607l30.657 30.069-56.365-10.316c-3.231-.585-6.467.987-7.993 3.893z"/><path d="m343.749 123.056 44.685 44.686c.368.368.765.689 1.184.965 1.366 1.203 3.122 1.878 4.951 1.878h.027c1.989-.008 3.895-.805 5.296-2.217.388-.391 9.533-9.605 13.135-13.336 13.206-13.677 11.212-35.182-4.741-51.136v.001c-7.599-7.601-16.224-12.283-24.941-13.543-9.91-1.43-19.42 1.823-26.765 9.169l-12.878 12.88c-1.408 1.408-2.198 3.318-2.196 5.31s.796 3.9 2.207 5.307c0 0 .017.017.026.026.004.002.006.006.01.01zm23.439-12.926c4.031-4.032 8.742-5.689 14.013-4.931 5.409.781 11.262 4.086 16.478 9.303v.001c8.517 8.516 13.23 21.129 4.558 30.109-1.75 1.812-4.934 5.045-7.712 7.856-5.395-5.36-13.496-13.414-17.497-17.415-3.342-3.341-11.803-11.775-17.405-17.358z"/><path d="m177.597 327.601c-.812-4.529-2.964-8.701-6.286-12.023 0 0 0 0-.001-.001-4.296-4.296-10.009-6.662-16.084-6.662-6.076 0-11.789 2.366-16.086 6.662l-13.611 13.61c-2.929 2.929-2.929 7.678 0 10.607l21.576 21.578h.001l25.281 25.281c1.407 1.406 3.314 2.196 5.303 2.196h.017c1.995-.005 3.906-.804 5.311-2.221 0 0 12.458-12.57 15.908-16.02 9.879-9.879 9.879-25.954 0-35.833-5.808-5.806-13.756-8.195-21.329-7.174zm-27.85-1.416c1.464-1.464 3.41-2.27 5.479-2.27s4.015.806 5.478 2.268c.001.001.001.001.001.001 1.463 1.463 2.269 3.408 2.269 5.478 0 2.069-.806 4.015-2.27 5.478-.992.992-2.847 2.859-4.874 4.899l-3.422 3.422-10.969-10.97zm38.573 33.817c-1.958 1.957-6.809 6.844-10.652 10.719l-14.64-14.64c1.083-1.092 2.227-2.245 3.326-3.351l7.346-7.346c4.03-4.031 10.589-4.031 14.619 0 4.031 4.03 4.031 10.588.001 14.618z"/><path d="m255.061 311.486c3.924 0 7.225-3.052 7.478-7.022.264-4.134-2.874-7.698-7.007-7.962l-26.708-1.703c2.361-3.844 3.695-8.246 3.838-12.828.214-6.869-2.267-13.25-6.984-17.968-9.638-9.637-25.632-9.33-35.651.689l-12.451 12.451c-.001.001-.002.002-.003.003-.004.004-.009.008-.013.012-2.929 2.93-2.929 7.678 0 10.607l46.858 46.857c1.464 1.464 3.384 2.196 5.303 2.196s3.839-.733 5.303-2.196c2.929-2.93 2.929-7.678 0-10.607l-14.732-14.731 34.284 2.186c.162.012.324.016.485.016zm-54.429-36.187c4.099-4.101 10.71-4.416 14.438-.688h.001c1.759 1.759 2.681 4.207 2.598 6.893-.087 2.793-1.285 5.542-3.288 7.545-1.646 1.645-4.511 4.535-7.067 7.117-2.526-2.501-5.333-5.283-6.925-6.875-1.348-1.348-4.251-4.235-6.889-6.859z"/><path d="m487.934 0h-133.711c-10.854 0-21.057 4.227-28.732 11.901l-46.079 46.079c-2.929 2.93-2.929 7.678 0 10.607 2.93 2.928 7.678 2.926 10.607 0l46.079-46.079c4.841-4.841 11.278-7.508 18.125-7.508h133.711c4.999 0 9.066 4.067 9.066 9.066v133.711c0 6.847-2.666 13.283-7.508 18.125l-291.476 291.476-114.023-114.022c-2.929-2.928-7.678-2.928-10.606 0-2.929 2.93-2.929 7.678 0 10.607l114.023 114.023-16.359 16.358c-3.535 3.535-9.287 3.535-12.822 0l-140.574-140.573c-1.712-1.712-2.655-3.988-2.655-6.41s.943-4.699 2.656-6.411l16.359-16.359 14.624 14.624c1.464 1.464 3.384 2.196 5.303 2.196s3.839-.732 5.303-2.196c2.929-2.93 2.929-7.678 0-10.607l-14.623-14.623 220.8-220.8c2.929-2.93 2.929-7.678 0-10.607-2.929-2.927-7.678-2.929-10.607 0l-247.766 247.764c-4.546 4.546-7.049 10.59-7.049 17.018 0 6.429 2.504 12.473 7.049 17.018l140.573 140.573c4.546 4.545 10.589 7.049 17.018 7.049 6.428 0 12.472-2.504 17.018-7.049l318.442-318.442c7.674-7.675 11.9-17.879 11.9-28.731v-133.712c0-13.27-10.796-24.066-24.066-24.066z"/><path d="m470.583 65.483c0-13.271-10.796-24.066-24.066-24.066s-24.067 10.796-24.067 24.066 10.796 24.066 24.066 24.066 24.067-10.795 24.067-24.066zm-33.133 0c0-4.999 4.067-9.066 9.066-9.066s9.066 4.067 9.066 9.066-4.067 9.066-9.066 9.066c-4.998.001-9.066-4.066-9.066-9.066z"/></g></svg>