<svg width="32" height="32" viewBox="0 0 32 32" fill="none" xmlns="http://www.w3.org/2000/svg">
<path d="M28.7498 8.82527L29.0001 28.3965C29.0001 29.0544 28.4161 29.63 27.7487 29.63H8.47814C7.81076 29.63 7.22681 29.0544 7.22681 28.3965V3.23348C7.22681 2.57563 7.81076 2 8.47814 2H22.4931L28.7498 8.82527Z" fill="#DDE3EB"/>
<path d="M28.7828 14.094L23.2881 8.2555L27.5148 7.83847L28.7828 8.67254V14.094Z" fill="#C5CBD7"/>
<path d="M22.4429 2L22.7599 7.42732C22.7599 8.16741 23.4273 8.82527 24.1781 8.82527L28.783 8.67255" fill="#9CA3AF"/>
<path d="M22.4201 27.0221H4.71354C3.85677 27.0221 3 26.3444 3 25.3956V17.8056C3 16.9924 3.71397 16.1792 4.71354 16.1792H22.4201C23.2769 16.1792 24.1337 16.8569 24.1337 17.8056V25.3956C23.9909 26.3444 23.2769 27.0221 22.4201 27.0221Z" fill="#3A73CA"/>
<path d="M8.5247 19.3833C9.8538 19.3833 10.6356 20.1478 10.6356 21.524C10.6356 22.9002 9.8538 23.7413 8.5247 23.7413H6.80469V19.3833H8.5247ZM7.74288 22.9767H8.36834C9.22834 22.9767 9.69744 22.4415 9.69744 21.524C9.69744 20.6066 9.22834 20.0714 8.36834 20.0714H7.74288V22.9767Z" fill="white"/>
<path d="M15.6392 21.6006C15.6392 22.9768 14.7792 23.8943 13.4501 23.8943C12.121 23.8943 11.261 23.0533 11.261 21.6006C11.261 20.2244 12.121 19.3069 13.4501 19.3069C14.7792 19.3069 15.6392 20.1479 15.6392 21.6006ZM12.2774 21.6006C12.2774 22.5181 12.7465 23.1297 13.4501 23.1297C14.1537 23.1297 14.6228 22.5181 14.6228 21.6006C14.6228 20.6831 14.1537 20.0715 13.4501 20.0715C12.7465 20.0715 12.2774 20.6831 12.2774 21.6006Z" fill="white"/>
<path d="M16.2644 21.6006C16.2644 20.2244 17.1244 19.3069 18.3753 19.3069C19.4699 19.3069 20.2517 19.995 20.3299 20.989H19.3917C19.3135 20.4538 18.9226 20.0715 18.3753 20.0715C17.6717 20.0715 17.2026 20.6831 17.2026 21.6006C17.2026 22.5181 17.6717 23.1297 18.3753 23.1297C18.9226 23.1297 19.3135 22.8239 19.3917 22.2887H20.3299C20.2517 23.2826 19.4699 23.8943 18.3753 23.8943C17.0462 23.8178 16.2644 22.9768 16.2644 21.6006Z" fill="white"/>
</svg>
