<svg width="24" height="24" viewBox="0 0 24 24" fill="none" xmlns="http://www.w3.org/2000/svg">
<g clip-path="url(#clip0)">
<path d="M3.51203 18.4269L4.39404 19.9615C4.57732 20.2846 4.84078 20.5385 5.15006 20.7231L8.30011 15.2308H2C2 15.5885 2.09164 15.9462 2.27491 16.2692L3.51203 18.4269Z" fill="#0066DA"/>
<path d="M12 8.76924L8.84994 3.27693C8.54066 3.46155 8.2772 3.71539 8.09393 4.03847L2.27491 14.1923C2.09501 14.5084 2.00024 14.8664 2 15.2308H8.30011L12 8.76924Z" fill="#00AC47"/>
<path d="M18.85 20.7231C19.1593 20.5385 19.4227 20.2846 19.606 19.9615L19.9725 19.3269L21.7251 16.2692C21.9084 15.9462 22 15.5885 22 15.2308H15.6995L17.0401 17.8846L18.85 20.7231Z" fill="#EA4335"/>
<path d="M12.0002 8.76923L15.1502 3.27692C14.8409 3.09231 14.4858 3 14.1193 3H9.88103C9.51447 3 9.15938 3.10385 8.8501 3.27692L12.0002 8.76923Z" fill="#00832D"/>
<path d="M15.7 15.2308H8.3002L5.15015 20.7231C5.45942 20.9077 5.81452 21 6.18107 21H17.8191C18.1857 21 18.5408 20.8962 18.85 20.7231L15.7 15.2308Z" fill="#2684FC"/>
<path d="M18.8156 9.11539L15.9061 4.03847C15.7228 3.71539 15.4593 3.46155 15.1501 3.27693L12 8.76924L15.6999 15.2308H21.9885C21.9885 14.8731 21.8969 14.5154 21.7136 14.1923L18.8156 9.11539Z" fill="#FFBA00"/>
</g>
<defs>
<clipPath id="clip0">
<rect width="20" height="18" fill="white" transform="translate(2 3)"/>
</clipPath>
</defs>
</svg>
