<svg width="80" height="80" viewBox="0 0 80 80" fill="none" xmlns="http://www.w3.org/2000/svg">
<path d="M40.3595 79.5C62.0474 79.5 79.7191 61.9014 79.7191 40.2865C79.646 18.5986 62.0474 1 40.3595 1C18.5986 1 1 18.5986 1 40.2135C1 61.9014 18.5986 79.5 40.3595 79.5Z" fill="#A8BEFD"/>
<mask id="mask0" style="mask-type:alpha" maskUnits="userSpaceOnUse" x="1" y="1" width="79" height="79">
<path d="M40.3595 79.5C62.0474 79.5 79.7191 61.9014 79.7191 40.2865C79.646 18.5986 62.0474 1 40.3595 1C18.5986 1 1 18.5986 1 40.2135C1 61.9014 18.5986 79.5 40.3595 79.5Z" fill="#083063"/>
</mask>
<g mask="url(#mask0)">
<g filter="url(#filter0_d)">
<path d="M65.4001 31.4214L65.9675 77.0988C65.9675 78.6592 64.6908 79.865 63.1304 79.865H18.5878C17.0274 79.865 15.7507 78.5883 15.7507 77.0988V18.3707C15.7507 16.8103 17.0274 15.6045 18.5878 15.6045H50.8599L65.4001 31.4214Z" fill="url(#paint0_linear)"/>
</g>
<path d="M37.0532 70.1035H36.1406C35.9422 70.1035 35.7834 69.9186 35.7834 69.6968C35.7834 69.4749 35.9422 69.29 36.1406 69.29H37.0532C37.2516 69.29 37.4103 69.4749 37.4103 69.6968C37.4103 69.9556 37.2516 70.1035 37.0532 70.1035Z" fill="#CED7E2"/>
<path d="M31.9514 70.1035H23.3463C23.0252 70.1035 22.7683 69.9186 22.7683 69.6968C22.7683 69.4749 23.0252 69.29 23.3463 69.29H31.9514C32.2725 69.29 32.5294 69.4749 32.5294 69.6968C32.5294 69.9556 32.2725 70.1035 31.9514 70.1035Z" fill="#D5DDEA"/>
<path d="M44.6387 25.3651H23.6738C23.1862 25.3651 22.7683 24.9897 22.7683 24.5517C22.7683 24.1137 23.1862 23.7383 23.6738 23.7383H44.6387C45.1263 23.7383 45.5442 24.1137 45.5442 24.5517C45.5442 24.9897 45.1263 25.3651 44.6387 25.3651Z" fill="#D5DDEA"/>
<path d="M31.6987 30.246H23.6683C23.1837 30.246 22.7683 29.8706 22.7683 29.4326C22.7683 28.9946 23.1837 28.6191 23.6683 28.6191H31.6294C32.114 28.6191 32.5294 28.9946 32.5294 29.4326C32.5294 29.8706 32.114 30.246 31.6987 30.246Z" fill="#D5DDEA"/>
<path d="M51.0325 15.6045V28.5901C51.0325 30.4139 52.6038 31.873 54.3893 31.873L65.3705 31.4663" fill="#D5DDEA"/>
</g>
<path d="M27.9774 60.7213L38.4382 44.1651C39.5768 42.6116 41.9607 42.6116 43.0993 44.1651L53.5601 60.7213C54.6631 62.2057 53.5601 64.3115 51.6743 64.3115H29.8988C27.9774 64.277 26.8744 62.2057 27.9774 60.7213Z" fill="#D63D3D"/>
<path d="M40.7687 48.4033C39.7719 48.4033 38.9966 49.2796 39.0705 50.3083L39.6243 56.4802C39.6612 57.0898 40.178 57.5851 40.7687 57.5851C41.3594 57.5851 41.8763 57.0898 41.9132 56.4802L42.467 50.3083C42.5408 49.2415 41.7655 48.4033 40.7687 48.4033Z" fill="white"/>
<path d="M40.7699 58.7285C40.0315 58.7285 39.4408 59.3381 39.4408 60.1001C39.4408 60.862 40.0315 61.4716 40.7699 61.4716C41.5082 61.4716 42.0989 60.862 42.0989 60.1001C42.0989 59.3381 41.5082 58.7285 40.7699 58.7285Z" fill="white"/>
<defs>
<filter id="filter0_d" x="-6.24927" y="4.60449" width="94.2168" height="108.26" filterUnits="userSpaceOnUse" color-interpolation-filters="sRGB">
<feFlood flood-opacity="0" result="BackgroundImageFix"/>
<feColorMatrix in="SourceAlpha" type="matrix" values="0 0 0 0 0 0 0 0 0 0 0 0 0 0 0 0 0 0 127 0" result="hardAlpha"/>
<feOffset dy="11"/>
<feGaussianBlur stdDeviation="11"/>
<feColorMatrix type="matrix" values="0 0 0 0 0.397708 0 0 0 0 0.47749 0 0 0 0 0.575 0 0 0 0.27 0"/>
<feBlend mode="normal" in2="BackgroundImageFix" result="effect1_dropShadow"/>
<feBlend mode="normal" in="SourceGraphic" in2="effect1_dropShadow" result="shape"/>
</filter>
<linearGradient id="paint0_linear" x1="40.8428" y1="14.1181" x2="40.8428" y2="80.5577" gradientUnits="userSpaceOnUse">
<stop stop-color="#FDFEFF"/>
<stop offset="0.9964" stop-color="#ECF0F5"/>
</linearGradient>
</defs>
</svg>
