<svg width="129" height="142" viewBox="0 0 129 142" fill="none" xmlns="http://www.w3.org/2000/svg">
<path d="M71.2996 116.7C99.2996 116.7 122 94 122 65.9C122 37.8 99.1996 15.1 71.2996 15.1C43.2996 15.1 20.5996 37.8 20.5996 65.9C20.5996 94 43.2996 116.7 71.2996 116.7Z" fill="#DDE3EB"/>
<path d="M118.7 32.6C120.964 32.6 122.8 30.7644 122.8 28.5C122.8 26.2357 120.964 24.4 118.7 24.4C116.435 24.4 114.6 26.2357 114.6 28.5C114.6 30.7644 116.435 32.6 118.7 32.6Z" fill="#DDE3EB"/>
<path d="M124.7 16.6C126.247 16.6 127.5 15.3464 127.5 13.8C127.5 12.2536 126.247 11 124.7 11C123.154 11 121.9 12.2536 121.9 13.8C121.9 15.3464 123.154 16.6 124.7 16.6Z" fill="#DDE3EB"/>
<path d="M23.3 32.5C24.8464 32.5 26.1 31.2464 26.1 29.7C26.1 28.1536 24.8464 26.9 23.3 26.9C21.7536 26.9 20.5 28.1536 20.5 29.7C20.5 31.2464 21.7536 32.5 23.3 32.5Z" fill="#DDE3EB"/>
<path d="M6.2 86.5C9.07188 86.5 11.4 84.1719 11.4 81.3C11.4 78.4281 9.07188 76.1 6.2 76.1C3.32812 76.1 1 78.4281 1 81.3C1 84.1719 3.32812 86.5 6.2 86.5Z" fill="#DDE3EB"/>
<g filter="url(#filter0_d)">
<path d="M106 40.3L106.8 104.7C106.8 106.9 105 108.6 102.8 108.6H40C37.8 108.6 36 106.8 36 104.7V21.9C36 19.7 37.8 18 40 18H85.5L106 40.3Z" fill="url(#paint0_linear)"/>
</g>
<path d="M66.4002 95.9H64.1002C63.6002 95.9 63.2002 95.4 63.2002 94.8C63.2002 94.2 63.6002 93.7 64.1002 93.7H66.4002C66.9002 93.7 67.3002 94.2 67.3002 94.8C67.3002 95.5 66.9002 95.9 66.4002 95.9Z" fill="#526E91"/>
<path d="M59.3996 95.9H45.9996C45.4996 95.9 45.0996 95.4 45.0996 94.8C45.0996 94.2 45.4996 93.7 45.9996 93.7H59.3996C59.8996 93.7 60.2996 94.2 60.2996 94.8C60.2996 95.5 59.8996 95.9 59.3996 95.9Z" fill="#526E91"/>
<path d="M76.4996 31.7H46.3996C45.6996 31.7 45.0996 31.1 45.0996 30.4C45.0996 29.7 45.6996 29.1 46.3996 29.1H76.4996C77.1996 29.1 77.7996 29.7 77.7996 30.4C77.7996 31.1 77.1996 31.7 76.4996 31.7Z" fill="#526E91"/>
<path d="M57.9996 38.9H46.3996C45.6996 38.9 45.0996 38.3 45.0996 37.6C45.0996 36.9 45.6996 36.3 46.3996 36.3H57.8996C58.5996 36.3 59.1996 36.9 59.1996 37.6C59.1996 38.3 58.5996 38.9 57.9996 38.9Z" fill="#526E91"/>
<path d="M85.2998 18.2V36C85.2998 38.5 87.4998 40.5 89.9998 40.5H105.8" fill="#526E91"/>
<path d="M104.481 109C103.891 109 103.301 108.761 102.829 108.225L92.9743 98.2649L92.6203 98.5035C89.4337 100.889 85.716 102.141 81.9393 102.141C77.3955 102.141 72.8516 100.293 69.488 97.0721C65.9474 93.6727 64 89.0804 64 84.0707C64 74.111 72.0255 66 81.8803 66C88.6075 66 94.5086 69.5784 97.6952 75.6616C100.823 81.6852 100.41 88.7226 96.574 94.3883L96.338 94.7462L106.252 104.766C107.255 105.779 107.019 106.793 106.842 107.33C106.37 108.284 105.426 109 104.481 109ZM81.8803 70.9501C74.681 70.9501 68.8979 76.8544 68.8979 84.0707C68.8979 92.301 75.5661 97.251 82.0573 97.251C86.0111 97.251 89.6107 95.4619 92.1482 92.2413C95.2758 88.3051 95.8069 82.9972 93.6235 78.405C91.381 73.8128 86.8962 70.9501 81.8803 70.9501Z" fill="#6B7280"/>
<defs>
<filter id="filter0_d" x="14" y="7" width="114.8" height="134.6" filterUnits="userSpaceOnUse" color-interpolation-filters="sRGB">
<feFlood flood-opacity="0" result="BackgroundImageFix"/>
<feColorMatrix in="SourceAlpha" type="matrix" values="0 0 0 0 0 0 0 0 0 0 0 0 0 0 0 0 0 0 127 0" result="hardAlpha"/>
<feOffset dy="11"/>
<feGaussianBlur stdDeviation="11"/>
<feColorMatrix type="matrix" values="0 0 0 0 0.397708 0 0 0 0 0.47749 0 0 0 0 0.575 0 0 0 0.27 0"/>
<feBlend mode="normal" in2="BackgroundImageFix" result="effect1_dropShadow"/>
<feBlend mode="normal" in="SourceGraphic" in2="effect1_dropShadow" result="shape"/>
</filter>
<linearGradient id="paint0_linear" x1="71.3769" y1="15.9043" x2="71.3769" y2="109.577" gradientUnits="userSpaceOnUse">
<stop stop-color="#FDFEFF"/>
<stop offset="0.9964" stop-color="#ECF0F5"/>
</linearGradient>
</defs>
</svg>
