<svg width="24" height="24" viewBox="0 0 24 24" fill="none" xmlns="http://www.w3.org/2000/svg">
<path d="M3.08878 3.99994H7.96618C8.28561 3.99994 8.58066 4.17057 8.74005 4.44737L9.54281 5.54399C9.7022 5.8208 9.99729 5.99142 10.3167 5.99142H22.197V18.5117C22.197 19.1693 21.6639 19.7024 21.0063 19.7024H2.99363C2.33607 19.7024 1.80298 19.1693 1.80298 18.5117V7.38031C1.80298 6.45997 1.94517 5.54513 2.22454 4.66821C2.32688 4.27465 2.68216 3.99994 3.08878 3.99994Z" fill="#FEC726"/>
<path d="M19.3351 5.78661H3.65894V12.4087H19.3351V5.78661Z" fill="#F3F4F6"/>
<path d="M21.304 4.59526H16.389C16.0394 4.59526 15.722 4.7992 15.5767 5.11712L14.7357 6.95783C14.5904 7.27575 14.273 7.47969 13.9235 7.47969H1.80298V18.8094C1.80298 19.4669 2.33607 20 2.99363 20H21.0064C21.6639 20 22.197 19.4669 22.197 18.8094V5.48825C22.197 4.99509 21.7972 4.59526 21.304 4.59526Z" fill="#FBB03B"/>
<path d="M3.28581 4H8.1632C8.48263 4 8.77768 4.17063 8.93708 4.44743L9.73983 5.54405C9.89922 5.82086 10.1943 5.99148 10.5137 5.99148H22.394V18.5118C22.394 19.1694 21.8609 19.7025 21.2033 19.7025H3.19065C2.53309 19.7025 2 19.1694 2 18.5118V7.38037C2 6.46004 2.14219 5.54519 2.42156 4.66827C2.5239 4.27471 2.87918 4 3.28581 4Z" fill="#FEC726"/>
<path d="M21.501 4.59532H16.586C16.2364 4.59532 15.919 4.79927 15.7738 5.11718L14.9327 6.95789C14.7874 7.27581 14.47 7.47975 14.1205 7.47975H2V18.8094C2 19.467 2.53309 20.0001 3.19065 20.0001H21.2034C21.8609 20.0001 22.394 19.467 22.394 18.8094V5.48831C22.394 4.99515 21.9942 4.59532 21.501 4.59532Z" fill="#FBB03B"/>
</svg>
