<svg width="24" height="24" viewBox="0 0 24 24" fill="none" xmlns="http://www.w3.org/2000/svg">
<path d="M3.08878 3.99994H7.96618C8.28561 3.99994 8.58066 4.17057 8.74005 4.44737L9.54281 5.54399C9.7022 5.8208 9.99729 5.99142 10.3167 5.99142H22.197V18.5117C22.197 19.1693 21.6639 19.7024 21.0063 19.7024H2.99363C2.33607 19.7024 1.80298 19.1693 1.80298 18.5117V7.38031C1.80298 6.45997 1.94517 5.54513 2.22454 4.66821C2.32688 4.27465 2.68216 3.99994 3.08878 3.99994Z" fill="#FEC726"/>
<path d="M19.3351 5.78661H3.65894V12.4087H19.3351V5.78661Z" fill="#F3F4F6"/>
<path d="M21.304 4.59526H16.389C16.0394 4.59526 15.722 4.7992 15.5767 5.11712L14.7357 6.95783C14.5904 7.27575 14.273 7.47969 13.9235 7.47969H1.80298V18.8094C1.80298 19.4669 2.33607 20 2.99363 20H21.0064C21.6639 20 22.197 19.4669 22.197 18.8094V5.48825C22.197 4.99509 21.7972 4.59526 21.304 4.59526Z" fill="#FBB03B"/>
</svg>
