<svg id="Capa_1" enable-background="new 0 0 512.005 512.005" height="512" viewBox="0 0 512.005 512.005" width="512" xmlns="http://www.w3.org/2000/svg"><g><path d="m286.002 61.004h-60c-8.291 0-15 6.709-15 15v21.27c-12.261 3.486-24.082 8.423-35.332 14.766l-15.132-15.132c-5.859-5.859-15.352-5.859-21.211 0l-42.422 42.422c-5.859 5.859-5.859 15.352 0 21.211l15.132 15.132c-6.343 11.25-11.279 23.071-14.766 35.332h-22.27c-8.291 0-15 6.709-15 15v60c0 8.291 6.709 15 15 15h22.27c3.486 12.261 8.423 24.082 14.766 35.332l-15.132 15.132c-5.859 5.859-5.859 15.352 0 21.211l42.422 42.422c5.859 5.859 15.352 5.859 21.211 0l15.132-15.132c11.25 6.343 23.071 11.279 35.332 14.766v21.27c0 8.291 6.709 15 15 15h60c8.291 0 15-6.709 15-15v-21.27c12.261-3.486 24.082-8.423 35.332-14.766l15.132 15.132c5.859 5.859 15.352 5.859 21.211 0l42.422-42.422c5.859-5.859 5.859-15.352 0-21.211l-15.132-15.132c6.343-11.25 11.279-23.071 14.766-35.332h22.27c8.291 0 15-6.709 15-15v-60c0-8.291-6.709-15-15-15h-22.27c-3.486-12.261-8.423-24.082-14.766-35.332l15.132-15.132c5.859-5.859 5.859-15.352 0-21.211l-42.422-42.422c-5.859-5.859-15.352-5.859-21.211 0l-15.132 15.132c-11.25-6.343-23.071-11.279-35.332-14.766v-21.27c0-8.291-6.709-15-15-15zm75 195c0 57.891-47.109 105-105 105s-105-47.109-105-105 47.109-105 105-105 105 47.109 105 105z"/><path d="m256.002.004c-140.61 0-256 115.39-256 256 0 94.244 53.553 181.174 134.815 225.218l-4.645 1.749c-7.749 2.915-11.675 11.558-8.745 19.321 2.924 7.784 11.622 11.656 19.321 8.745l38.452-14.473c3.911-1.465 7.017-4.497 8.599-8.364s1.479-8.218-.293-12.012l-17.93-38.452c-3.501-7.485-12.407-10.752-19.937-7.251-7.5 3.501-10.752 12.422-7.251 19.937l.267.575c-67.947-39.864-112.653-114.397-112.653-194.993 0-124.072 101.928-226 226-226 8.291 0 15-6.709 15-15s-6.709-15-15-15z"/><path d="m375.42 29.648 2.032-.881c7.602-3.294 11.094-12.126 7.8-19.728-3.294-7.601-12.127-11.094-19.728-7.799l-33.4 14.474c-3.716 1.61-6.623 4.654-8.06 8.44-1.438 3.786-1.282 7.992.429 11.662l17.93 38.451c3.517 7.544 12.46 10.742 19.934 7.256 7.509-3.501 10.757-12.426 7.256-19.934l-.504-1.08c68.546 40.148 112.894 115.333 112.894 195.494 0 124.617-101.383 226-226 226-8.284 0-15 6.716-15 15s6.716 15 15 15c140.96 0 256-115.049 256-256-.001-97.393-55.499-183.344-136.583-226.355z"/></g></svg>