<svg width="24" height="24" viewBox="0 0 24 24" fill="none" xmlns="http://www.w3.org/2000/svg">
<path d="M15.552 14.8089C14.64 14.8089 13.896 14.0813 13.896 13.1894V12.9547C13.896 11.3213 14.3808 9.85674 15.264 8.83815C16.0944 7.87589 16.4304 6.59913 16.1808 5.34115C15.8544 3.68888 14.4912 2.36988 12.7968 2.06947C11.5296 1.84416 10.2432 2.17273 9.2688 2.97071C8.2992 3.76398 7.7376 4.93278 7.7376 6.17198C7.7376 7.04975 8.016 7.88997 8.5392 8.59876C9.576 9.99756 10.104 11.4245 10.104 12.8327V13.1472C10.104 14.0813 9.3744 14.8182 8.448 14.8182H3V19.6859H4.1856V22H19.8192V19.6859H21V14.8089H15.552ZM9.6912 7.77732C9.3456 7.30792 9.1584 6.74934 9.1584 6.16729C9.1584 5.34115 9.5328 4.56196 10.1808 4.03154C10.8384 3.49643 11.6736 3.2852 12.5376 3.4401C13.6464 3.63725 14.568 4.5291 14.7792 5.60871C14.9472 6.46301 14.7312 7.29384 14.1696 7.9416C13.0704 9.21367 12.4656 10.9927 12.4656 12.9594V13.1941C12.4656 13.7762 12.6336 14.3301 12.9504 14.8136H11.0304C11.352 14.3207 11.52 13.748 11.52 13.1472V12.8327C11.5296 11.1194 10.9104 9.4202 9.6912 7.77732ZM18.5136 20.7185H5.4864V19.5591H18.5088V20.7185H18.5136ZM19.5744 18.2824H4.4256V16.203H19.5792V18.2824H19.5744Z" fill="#374151"/>
</svg>
