<svg id="Capa_1" enable-background="new 0 0 511.984 511.984" height="512" viewBox="0 0 511.984 511.984" width="512" xmlns="http://www.w3.org/2000/svg"><g><g id="Page-1_27_"><g id="_x30_28---Sell-Button"><path id="Shape_171_" d="m55.459 273.067h207.974l30.208 173.372c.968 5.857 5.296 10.593 11.042 12.083 5.814 1.558 12.001-.447 15.795-5.12l35.61-44.373 72.841 96.179c5.716 7.527 16.446 9.008 23.987 3.311l39.484-29.867c3.623-2.741 6.008-6.81 6.631-11.31s-.568-9.064-3.311-12.686l-72.832-96.205 52.412-22.298c5.451-2.382 9.016-7.721 9.126-13.668.11-5.948-3.254-11.415-8.614-13.997l-84.702-40.602c13.934-7.325 22.686-21.745 22.75-37.487v-187.732c-.029-23.553-19.115-42.639-42.668-42.667h-315.733c-23.553.028-42.639 19.114-42.667 42.667v187.733c.028 23.552 19.114 42.638 42.667 42.667zm350.72 73.958c-2.42 1.029-4.23 3.116-4.907 5.657s-.145 5.252 1.443 7.348l79.411 104.917v.077l-39.603 29.909-79.428-104.917c-1.579-2.106-4.041-3.366-6.673-3.413h-.128c-2.585.002-5.029 1.176-6.647 3.191l-39.893 49.673-36.337-209.067 87.603 41.984 103.697 49.707zm-376.32-304.358c0-14.138 11.462-25.6 25.6-25.6h315.733c14.138 0 25.6 11.462 25.6 25.6v187.733c0 14.139-11.462 25.6-25.6 25.6h-4.855l-85.538-40.96c-5.784-2.774-12.634-2.083-17.747 1.79-5.114 3.873-7.634 10.28-6.53 16.599l3.933 22.571h-204.996c-14.138 0-25.6-11.461-25.6-25.6z"/><path id="Shape_170_" d="m89.592 179.2c-13.875 0-25.6-7.817-25.6-17.067 0-4.713-3.821-8.533-8.533-8.533s-8.533 3.821-8.533 8.533c0 18.825 19.14 34.133 42.667 34.133s42.667-15.309 42.667-34.133-19.141-34.133-42.668-34.133c-13.875 0-25.6-7.817-25.6-17.067s11.725-17.067 25.6-17.067 25.6 7.817 25.6 17.067c0 4.713 3.821 8.533 8.533 8.533s8.533-3.821 8.533-8.533c0-18.825-19.14-34.133-42.667-34.133s-42.667 15.309-42.667 34.133 19.14 34.133 42.667 34.133c13.875 0 25.6 7.817 25.6 17.067.001 9.25-11.724 17.067-25.599 17.067z"/><path id="Shape_169_" d="m157.859 196.267h51.2c4.713 0 8.533-3.821 8.533-8.533 0-4.713-3.821-8.533-8.533-8.533h-42.667v-34.133h42.667c4.713 0 8.533-3.821 8.533-8.533s-3.82-8.535-8.533-8.535h-42.667v-34.133h42.667c4.713 0 8.533-3.821 8.533-8.533s-3.821-8.533-8.533-8.533h-51.2c-4.713 0-8.533 3.821-8.533 8.533v102.4c0 4.712 3.82 8.533 8.533 8.533z"/><path id="Shape_168_" d="m243.192 196.267h51.2c4.713 0 8.533-3.821 8.533-8.533 0-4.713-3.82-8.533-8.533-8.533h-42.667v-93.868c0-4.713-3.82-8.533-8.533-8.533s-8.533 3.821-8.533 8.533v102.4c0 4.713 3.82 8.534 8.533 8.534z"/><path id="Shape_167_" d="m319.992 196.267h51.2c4.713 0 8.533-3.821 8.533-8.533 0-4.713-3.82-8.533-8.533-8.533h-42.667v-93.868c0-4.713-3.82-8.533-8.533-8.533s-8.533 3.821-8.533 8.533v102.4c0 4.713 3.82 8.534 8.533 8.534z"/></g></g></g></svg>