<svg width="160" height="32" viewBox="0 0 160 32" fill="none" xmlns="http://www.w3.org/2000/svg">
<path d="M47.7956 14.513V15.3662C47.5706 15.1772 47.3213 15.0066 47.0538 14.8603C46.4459 14.5312 45.7041 14.3606 44.8712 14.3606C43.8863 14.3606 43.0047 14.5983 42.2691 15.0675C41.5273 15.5368 40.9498 16.1767 40.5363 16.969C40.1351 17.7552 39.9344 18.645 39.9344 19.6079C39.9344 20.5587 40.1351 21.4424 40.5363 22.2346C40.9437 23.033 41.5273 23.679 42.263 24.1422C43.0047 24.6176 43.8802 24.8553 44.8712 24.8553C45.7102 24.8553 46.4459 24.6846 47.0538 24.3555C47.3213 24.2153 47.5706 24.0447 47.7956 23.8558V24.7029H50.0329V14.513H47.7956ZM48.2819 19.614C48.2819 20.2478 48.1603 20.839 47.9111 21.3814C47.6618 21.9238 47.3031 22.3565 46.8167 22.6795C46.3364 23.0086 45.7467 23.1671 45.0536 23.1671C44.3727 23.1671 43.7768 23.0086 43.2783 22.6795C42.7798 22.3565 42.4028 21.9238 42.1414 21.3814C41.88 20.839 41.7462 20.2478 41.7462 19.614C41.7462 18.9619 41.88 18.3708 42.1414 17.8344C42.4028 17.2981 42.7798 16.8654 43.2783 16.5424C43.7768 16.2133 44.3727 16.0549 45.0536 16.0549C45.7528 16.0549 46.3364 16.2133 46.8167 16.5424C47.297 16.8654 47.6618 17.2981 47.9111 17.8344C48.1603 18.3708 48.2819 18.968 48.2819 19.614Z" fill="white"/>
<path d="M59.262 20.9365H61.6209L61.4629 21.4789C61.165 22.4723 60.5813 23.2951 59.7301 23.9228C58.8851 24.5505 57.8515 24.8614 56.6538 24.8614C55.6385 24.8614 54.7448 24.6237 54.003 24.1544C53.2552 23.6851 52.6655 23.0452 52.2521 22.2407C51.8447 21.4485 51.638 20.5648 51.638 19.614C51.638 18.645 51.8447 17.7613 52.2521 16.9751C52.6655 16.1828 53.2552 15.5429 54.003 15.0737C54.7448 14.6044 55.6385 14.3667 56.6538 14.3667C57.8393 14.3667 58.8729 14.6836 59.7301 15.3052C60.5813 15.933 61.165 16.7557 61.4629 17.7491L61.6209 18.2915H59.262L59.1587 18.0295C58.9763 17.5663 58.6844 17.1884 58.2892 16.9081C57.8941 16.6277 57.4077 16.4815 56.8423 16.4815C56.2343 16.4815 55.7175 16.6217 55.2798 16.902C54.8299 17.1884 54.4894 17.5663 54.2523 18.0295C54.0091 18.4987 53.8875 19.029 53.8875 19.6201C53.8875 20.193 54.0091 20.7232 54.2523 21.1986C54.4894 21.674 54.8238 22.0457 55.2798 22.3322C55.7236 22.6186 56.2404 22.7588 56.8483 22.7588C57.4198 22.7588 57.9001 22.6186 58.2953 22.3322C58.7027 22.0457 58.9884 21.674 59.1647 21.2108L59.262 20.9365Z" fill="white"/>
<path d="M73.0752 16.9812C72.6678 16.1828 72.0781 15.5429 71.3242 15.0737C70.5703 14.6044 69.6644 14.3667 68.6309 14.3667C67.6034 14.3667 66.7036 14.6044 65.9376 15.0737C65.1776 15.549 64.5879 16.1889 64.1866 16.9751C63.7853 17.7552 63.5786 18.645 63.5786 19.614C63.5786 20.5648 63.7853 21.4485 64.1866 22.2347C64.5939 23.033 65.1837 23.679 65.9436 24.1544C66.7036 24.6237 67.6034 24.8614 68.6309 24.8614C69.6705 24.8614 70.5703 24.6237 71.3242 24.1544C72.072 23.6851 72.6618 23.0452 73.0752 22.2347C73.4764 21.4424 73.6771 20.5587 73.6771 19.614C73.6771 18.6511 73.4764 17.7613 73.0752 16.9812ZM68.6309 23.1671C67.9439 23.1671 67.3602 23.0086 66.8738 22.6795C66.3875 22.3565 66.0227 21.9238 65.7734 21.3814C65.5241 20.839 65.3965 20.2479 65.3965 19.614C65.3965 18.9619 65.5241 18.3708 65.7734 17.8344C66.0227 17.2981 66.3875 16.8654 66.8738 16.5424C67.3602 16.2133 67.9439 16.0549 68.6309 16.0549C69.324 16.0549 69.9137 16.2133 70.394 16.5424C70.8743 16.8654 71.2391 17.2981 71.4884 17.8344C71.7376 18.3647 71.8653 18.9619 71.8653 19.614C71.8653 20.2479 71.7376 20.839 71.4884 21.3814C71.2391 21.9238 70.8804 22.3565 70.394 22.6795C69.9137 23.0086 69.324 23.1671 68.6309 23.1671Z" fill="white"/>
<path d="M81.0518 14.3667V16.6094H80.4681C79.8601 16.6094 79.3494 16.7679 78.9178 17.097C78.4679 17.4383 78.1335 17.871 77.8964 18.4073C77.6471 18.9558 77.5255 19.547 77.5255 20.1747V24.7151H75.2881V14.513H77.5255V15.6892C77.5863 15.6161 77.6592 15.549 77.7322 15.4759C78.0301 15.1712 78.4192 14.903 78.8813 14.6897C79.3555 14.4703 79.9088 14.3606 80.541 14.3606H81.0518V14.3667Z" fill="white"/>
<path d="M89.3689 14.513V15.3601C89.15 15.1772 88.9008 15.0066 88.6332 14.8603C88.0131 14.5312 87.2775 14.3606 86.4445 14.3606C85.4596 14.3606 84.5781 14.5983 83.8363 15.0736C83.0946 15.5429 82.517 16.1828 82.1097 16.9751C81.7084 17.7613 81.5017 18.6511 81.5017 19.6079C81.5017 20.5526 81.7084 21.4302 82.1097 22.2285C82.5109 23.0269 83.0946 23.6729 83.8363 24.1422C84.5781 24.6176 85.4535 24.8553 86.4445 24.8553C87.2775 24.8553 88.0131 24.6846 88.6332 24.3555C88.9008 24.2153 89.1439 24.0447 89.3689 23.8619V24.7029H91.6062V14.513H89.3689ZM89.4905 21.3814C89.2412 21.9238 88.8764 22.3565 88.3961 22.6795C87.9158 23.0086 87.3261 23.1671 86.633 23.1671C85.946 23.1671 85.3563 23.0086 84.8577 22.6795C84.3592 22.3565 83.9762 21.9238 83.7208 21.3814C83.4594 20.839 83.3256 20.2478 83.3256 19.614C83.3256 18.9619 83.4533 18.3708 83.7208 17.8344C83.9822 17.2981 84.3592 16.8654 84.8577 16.5424C85.3563 16.2133 85.946 16.0549 86.633 16.0549C87.3322 16.0549 87.9158 16.2133 88.3961 16.5424C88.8704 16.8654 89.2351 17.2981 89.4905 17.8344C89.7398 18.3647 89.8613 18.9619 89.8613 19.614C89.8613 20.2478 89.7398 20.839 89.4905 21.3814Z" fill="white"/>
<path d="M104.678 22.6673C104.216 23.0025 103.65 23.1732 102.988 23.1732C102.307 23.1732 101.705 23.0147 101.194 22.6856C100.683 22.3626 100.288 21.9299 100.021 21.3875C99.747 20.8451 99.6133 20.2539 99.6133 19.6201C99.6133 18.968 99.747 18.3768 100.021 17.8405C100.294 17.3042 100.683 16.8715 101.194 16.5485C101.705 16.2194 102.301 16.061 102.988 16.061C103.65 16.061 104.216 16.2316 104.678 16.5668C105.146 16.902 105.486 17.3408 105.699 17.8771H107.207C106.933 16.969 106.41 16.2255 105.632 15.6526C104.854 15.0797 103.912 14.7933 102.805 14.7933C101.875 14.7933 101.06 15.0066 100.379 15.4393C99.6923 15.872 99.1634 16.451 98.7804 17.1823C98.3973 17.9137 98.2089 18.7242 98.2089 19.6262C98.2089 20.5099 98.3973 21.3205 98.7804 22.0579C99.1634 22.7892 99.6923 23.3743 100.379 23.807C101.06 24.2397 101.875 24.453 102.805 24.453C103.912 24.453 104.854 24.1666 105.632 23.5937C106.41 23.0208 106.939 22.2773 107.207 21.3692H105.699C105.486 21.8934 105.146 22.3322 104.678 22.6673Z" fill="white"/>
<path d="M116.831 14.9335V16.4449C116.478 15.933 116.029 15.5307 115.475 15.226C114.922 14.9274 114.259 14.775 113.487 14.775C112.581 14.775 111.785 14.9883 111.104 15.421C110.423 15.8537 109.9 16.4327 109.529 17.1641C109.152 17.8954 108.97 18.706 108.97 19.6079C108.97 20.4916 109.152 21.3022 109.529 22.0396C109.9 22.771 110.429 23.356 111.104 23.7887C111.779 24.2214 112.575 24.4347 113.487 24.4347C114.259 24.4347 114.922 24.2824 115.475 23.9838C116.029 23.6851 116.478 23.2829 116.831 22.7831V24.2824H118.229V14.9335H116.831ZM116.533 21.3814C116.284 21.9238 115.925 22.3565 115.439 22.6795C114.965 23.0086 114.369 23.1671 113.676 23.1671C112.995 23.1671 112.399 23.0086 111.9 22.6795C111.402 22.3565 111.025 21.9238 110.763 21.3814C110.502 20.839 110.368 20.2478 110.368 19.614C110.368 18.9619 110.502 18.3708 110.763 17.8344C111.025 17.2981 111.402 16.8654 111.9 16.5424C112.399 16.2133 112.995 16.0549 113.676 16.0549C114.375 16.0549 114.965 16.2133 115.439 16.5424C115.919 16.8654 116.284 17.2981 116.533 17.8344C116.782 18.3647 116.904 18.9619 116.904 19.614C116.904 20.2478 116.782 20.839 116.533 21.3814Z" fill="white"/>
<path d="M129.957 17.1701C129.586 16.4388 129.058 15.8598 128.383 15.4271C127.708 14.9944 126.911 14.7811 125.999 14.7811C125.227 14.7811 124.565 14.9274 124.011 15.2199C123.452 15.5124 123.002 15.9147 122.656 16.4266V14.9274H121.251V27.9939H122.656V22.7709C123.002 23.2707 123.452 23.6729 124.011 23.9777C124.565 24.2824 125.227 24.4347 125.999 24.4347C126.905 24.4347 127.702 24.2214 128.383 23.7887C129.064 23.356 129.586 22.7709 129.957 22.0396C130.328 21.3022 130.517 20.4916 130.517 19.6079C130.517 18.712 130.328 17.9015 129.957 17.1701ZM128.723 21.3814C128.462 21.9238 128.085 22.3565 127.592 22.6795C127.1 23.0086 126.51 23.1671 125.811 23.1671C125.13 23.1671 124.54 23.0086 124.06 22.6795C123.574 22.3565 123.209 21.9238 122.953 21.3814C122.704 20.839 122.583 20.2478 122.583 19.614C122.583 18.9619 122.71 18.3707 122.953 17.8344C123.203 17.2981 123.574 16.8654 124.06 16.5424C124.546 16.2133 125.13 16.0549 125.811 16.0549C126.51 16.0549 127.106 16.2133 127.592 16.5424C128.085 16.8654 128.462 17.2981 128.723 17.8344C128.985 18.3647 129.118 18.9619 129.118 19.614C129.118 20.2478 128.991 20.839 128.723 21.3814Z" fill="white"/>
<path d="M132.906 11.5267V13.3611H134.42V11.5267H132.906ZM132.967 14.9335V24.2946H134.365V14.9335H132.967Z" fill="white"/>
<path d="M139.8 14.9335V11.5815H138.396V14.9335H136.493V16.1645H138.396V24.2946H139.8V16.1706H141.947V14.9396H139.8V14.9335Z" fill="white"/>
<path d="M151.176 14.9335V16.4449C150.829 15.933 150.379 15.5307 149.82 15.226C149.267 14.9274 148.604 14.775 147.832 14.775C146.926 14.775 146.129 14.9883 145.448 15.421C144.774 15.8537 144.245 16.4327 143.874 17.1641C143.503 17.8954 143.314 18.706 143.314 19.6079C143.314 20.4916 143.503 21.3022 143.874 22.0396C144.245 22.771 144.774 23.356 145.448 23.7887C146.129 24.2214 146.92 24.4347 147.832 24.4347C148.604 24.4347 149.267 24.2824 149.82 23.9838C150.379 23.6851 150.829 23.2829 151.176 22.7831V24.2824H152.58V14.9335H151.176ZM150.878 21.3814C150.628 21.9238 150.264 22.3565 149.783 22.6795C149.309 23.0086 148.713 23.1671 148.02 23.1671C147.333 23.1671 146.743 23.0086 146.245 22.6795C145.746 22.3565 145.363 21.9238 145.102 21.3814C144.84 20.839 144.713 20.2478 144.713 19.614C144.713 18.9619 144.84 18.3708 145.102 17.8344C145.363 17.2981 145.746 16.8654 146.245 16.5424C146.743 16.2133 147.333 16.0549 148.02 16.0549C148.713 16.0549 149.303 16.2133 149.783 16.5424C150.264 16.8654 150.628 17.2981 150.878 17.8344C151.127 18.3647 151.249 18.9619 151.249 19.614C151.249 20.2478 151.127 20.839 150.878 21.3814Z" fill="white"/>
<path d="M155.602 11.1915V24.2946H157V11.1915H155.602Z" fill="white"/>
<path d="M36.8155 8.3088L31.2161 13.9584L27.3676 10.125C27.3676 10.125 28.8328 8.3088 32.0916 8.3088C35.3503 8.3088 36.8155 8.3088 36.8155 8.3088Z" fill="white"/>
<path d="M29.3375 15.7928L25.5437 19.5957L9.9978 4.02439C9.9978 4.02439 13.6639 3.90859 15.0744 4.19503C16.4849 4.48147 18.5702 5.09092 20.1267 6.54749C21.6831 8.00407 29.3375 15.7928 29.3375 15.7928Z" fill="white"/>
<path d="M23.6955 21.4302C21.6952 24.1849 19.2268 24.8614 18.4851 25.0137C17.7495 25.1722 12.4114 25.0929 12.4114 25.0929C12.4114 25.0929 13.9071 23.9837 13.9253 21.5582C13.9435 19.5835 12.527 17.9076 11.998 17.3469L11.9919 17.3408C11.8825 17.225 11.8156 17.164 11.8035 17.1519L3 8.33316C3 8.33316 6.66609 8.21737 8.07659 8.50381C9.48709 8.79025 11.5724 9.39969 13.1289 10.8563C14.4238 12.0691 19.9686 17.6943 21.7743 19.5226L21.7864 19.5348L21.8168 19.5653L23.6955 21.4302Z" fill="white"/>
<path d="M11.998 17.3469L11.8096 17.158C11.8217 17.164 11.8886 17.2311 11.998 17.3469Z" fill="white"/>
</svg>
