<svg width="138" height="15" viewBox="0 0 138 15" fill="none" xmlns="http://www.w3.org/2000/svg">
<g clip-path="url(#clip0_2674_4937)">
<path d="M20.93 15.0236C20.9319 14.3273 20.6915 13.652 20.25 13.1136C19.9754 12.7808 19.6323 12.5111 19.244 12.323C18.8557 12.1349 18.4314 12.0328 18 12.0236H6C5.31144 12.016 4.64555 11.7764 4.11 11.3436C3.76456 11.0633 3.48576 10.7098 3.29378 10.3086C3.10181 9.90731 3.00146 9.46839 3.00001 9.02358V6.02358C2.98894 5.39291 3.18964 4.77675 3.57 4.27358C3.84714 3.8877 4.21195 3.57315 4.63442 3.35583C5.05688 3.13851 5.52492 3.02464 6 3.02358H18C18.6287 3.01219 19.239 2.80991 19.75 2.44358C20.1216 2.16002 20.4219 1.79355 20.6267 1.37338C20.8316 0.95322 20.9355 0.490995 20.93 0.023576H5C3.8527 0.0149696 2.73846 0.407606 1.85 1.13358C1.27122 1.60311 0.804714 2.19609 0.484625 2.86914C0.164536 3.54219 -0.00104151 4.27829 4.92926e-06 5.02358V10.0236C4.92926e-06 11.1054 0.350894 12.1581 1 13.0236C1.46574 13.6446 2.06966 14.1486 2.76394 14.4957C3.45821 14.8428 4.22378 15.0236 5 15.0236H20.93Z" fill="url(#paint0_linear_2674_4937)"/>
<path d="M68.1094 10.1034C67.8295 9.76737 67.4795 9.49658 67.0839 9.31002C66.6883 9.12346 66.2567 9.02565 65.8194 9.02344C66.615 9.02344 67.3781 8.70737 67.9407 8.14476C68.5033 7.58215 68.8194 6.81909 68.8194 6.02344V3.02344C68.8128 2.5779 68.7071 2.13942 68.5099 1.73985C68.3127 1.34028 68.029 0.98965 67.6794 0.713437C67.1474 0.279764 66.4856 0.0368324 65.7994 0.0234375L47.8594 0.0234375V15.0234C48.5457 15.0304 49.2122 14.7929 49.7394 14.3534C50.0861 14.0721 50.3657 13.717 50.5577 13.3139C50.7498 12.9108 50.8494 12.4699 50.8494 12.0234V9.02344H62.8494C63.55 9.01667 64.2291 9.26554 64.7594 9.72344C65.0894 10.0082 65.3534 10.3615 65.5331 10.7587C65.7127 11.1559 65.8035 11.5875 65.7994 12.0234C65.7994 12.4934 65.7994 15.0234 65.7994 15.0234H68.7994V12.0234C68.8007 11.3225 68.5566 10.6432 68.1094 10.1034ZM63.9994 6.02344H50.8594V3.02344H63.9994C66.3894 3.02344 66.3994 6.02344 63.9994 6.02344Z" fill="url(#paint1_linear_2674_4937)"/>
<path d="M91.7391 8.23344C92.0504 7.95498 92.3002 7.61458 92.4724 7.23402C92.6446 6.85346 92.7354 6.44113 92.7391 6.02344V3.02344C92.7337 2.57871 92.6296 2.14074 92.4341 1.74122C92.2387 1.3417 91.9569 0.990638 91.6091 0.713437C91.0771 0.279764 90.4152 0.0368324 89.7291 0.0234375L71.7891 0.0234375V15.0234C72.4754 15.0304 73.1418 14.7929 73.6691 14.3534C74.0158 14.0721 74.2954 13.717 74.4874 13.3139C74.6795 12.9108 74.7791 12.4699 74.7791 12.0234V9.02344H89.7791C90.5066 9.00654 91.2032 8.72578 91.7391 8.23344ZM87.9991 6.02344H74.7891V3.02344H87.9991C90.3191 3.02344 90.3391 6.02344 87.9991 6.02344Z" fill="url(#paint2_linear_2674_4937)"/>
<path d="M110.669 12.0234C111.465 12.0234 112.228 12.3395 112.79 12.9021C113.353 13.4647 113.669 14.2278 113.669 15.0234H98.669C98.1914 15.0228 97.7208 14.9082 97.2964 14.689C96.872 14.4699 96.5061 14.1525 96.229 13.7634C95.8883 13.2477 95.7106 12.6415 95.719 12.0234V0.0234375C96.1539 0.0258726 96.5831 0.122828 96.9768 0.307586C97.3704 0.492344 97.7193 0.760488 97.999 1.09344C98.4484 1.63725 98.6989 2.31806 98.709 3.02344V11.0234C98.7103 11.249 98.7879 11.4675 98.929 11.6434C99.0232 11.7595 99.1421 11.8529 99.2771 11.9169C99.412 11.981 99.5596 12.0139 99.709 12.0134L110.669 12.0234Z" fill="url(#paint3_linear_2674_4937)"/>
<path d="M119.65 0.0234375C118.978 0.0267647 118.327 0.255664 117.8 0.673437C117.445 0.953867 117.158 1.31091 116.961 1.71786C116.764 2.12481 116.661 2.57113 116.66 3.02344V15.0234C117.345 15.0332 118.012 14.7993 118.54 14.3634C118.888 14.0811 119.169 13.7243 119.361 13.3194C119.553 12.9145 119.652 12.4716 119.65 12.0234V9.02344H134.6V12.0234C134.605 12.4247 134.688 12.8212 134.846 13.1901C135.004 13.5591 135.233 13.8932 135.52 14.1734C136.078 14.7058 136.819 15.0031 137.59 15.0034V0.0234375H119.65ZM134.6 6.02344H119.65V4.02344C119.651 3.87573 119.685 3.73008 119.749 3.59694C119.813 3.4638 119.905 3.34649 120.02 3.25344C120.193 3.10024 120.419 3.02122 120.65 3.03344H134.6V6.02344Z" fill="url(#paint4_linear_2674_4937)"/>
<path d="M44.5901 6.31434L42.8201 3.59434L41.5001 1.59434C41.2345 1.08614 40.8238 0.668422 40.3201 0.394344C39.8875 0.139494 39.392 0.0112904 38.8901 0.0243436H29.8901C29.196 0.0304915 28.5265 0.281998 28.0001 0.734344C27.696 1.00564 27.4362 1.3228 27.2301 1.67434L24.1001 6.45434C23.9993 6.621 23.9409 6.80986 23.9301 7.00434V13.4843C23.9208 13.8822 24.0699 14.2674 24.3447 14.5553C24.6194 14.8431 24.9973 15.0101 25.3951 15.0193C25.7929 15.0286 26.1781 14.8795 26.466 14.6048C26.7539 14.33 26.9208 13.9522 26.9301 13.5543V12.0243H41.9301V13.5143C41.9301 13.9122 42.0881 14.2937 42.3694 14.575C42.6507 14.8563 43.0323 15.0143 43.4301 15.0143C43.8279 15.0143 44.2095 14.8563 44.4908 14.575C44.7721 14.2937 44.9301 13.9122 44.9301 13.5143V7.02434C44.9092 6.75359 44.7879 6.50039 44.5901 6.31434ZM29.9001 10.0243H27.9001C27.6349 10.0243 27.3805 9.91899 27.193 9.73145C27.0055 9.54391 26.9001 9.28956 26.9001 9.02434C26.9001 8.75913 27.0055 8.50477 27.193 8.31724C27.3805 8.1297 27.6349 8.02434 27.9001 8.02434H29.9001C30.1653 8.02434 30.4197 8.1297 30.6072 8.31724C30.7947 8.50477 30.9001 8.75913 30.9001 9.02434C30.9001 9.28956 30.7947 9.54391 30.6072 9.73145C30.4197 9.91899 30.1653 10.0243 29.9001 10.0243ZM34.4001 6.02434H27.4001C27.3997 5.8249 27.4589 5.62988 27.5701 5.46434L29.0601 3.46434C29.1537 3.32579 29.2805 3.21291 29.429 3.13605C29.5775 3.05918 29.7429 3.02077 29.9101 3.02434H38.9101C39.0765 3.02354 39.2405 3.06427 39.3871 3.14285C39.5338 3.22143 39.6586 3.33537 39.7501 3.47434L41.2301 5.47434C41.3449 5.63874 41.4076 5.83385 41.4101 6.03434L34.4001 6.02434ZM40.8801 10.0243H38.8801C38.6149 10.0243 38.3605 9.91899 38.173 9.73145C37.9855 9.54391 37.8801 9.28956 37.8801 9.02434C37.8801 8.75913 37.9855 8.50477 38.173 8.31724C38.3605 8.1297 38.6149 8.02434 38.8801 8.02434H40.8801C41.1453 8.02434 41.3997 8.1297 41.5872 8.31724C41.7747 8.50477 41.8801 8.75913 41.8801 9.02434C41.8801 9.28956 41.7747 9.54391 41.5872 9.73145C41.3997 9.91899 41.1453 10.0243 40.8801 10.0243Z" fill="url(#paint5_linear_2674_4937)"/>
</g>
<defs>
<linearGradient id="paint0_linear_2674_4937" x1="-2.20036" y1="-5.57088" x2="5.59601" y2="16.1304" gradientUnits="userSpaceOnUse">
<stop stop-color="#0AFDB1"/>
<stop offset="0.552083" stop-color="#02B469"/>
<stop offset="1" stop-color="#029F54"/>
</linearGradient>
<linearGradient id="paint1_linear_2674_4937" x1="45.6559" y1="-5.57088" x2="53.4437" y2="16.1375" gradientUnits="userSpaceOnUse">
<stop stop-color="#0AFDB1"/>
<stop offset="0.552083" stop-color="#02B469"/>
<stop offset="1" stop-color="#029F54"/>
</linearGradient>
<linearGradient id="paint2_linear_2674_4937" x1="69.5866" y1="-5.57088" x2="77.3773" y2="16.1351" gradientUnits="userSpaceOnUse">
<stop stop-color="#0AFDB1"/>
<stop offset="0.552083" stop-color="#02B469"/>
<stop offset="1" stop-color="#029F54"/>
</linearGradient>
<linearGradient id="paint3_linear_2674_4937" x1="93.8317" y1="-5.57083" x2="102.563" y2="15.2735" gradientUnits="userSpaceOnUse">
<stop stop-color="#0AFDB1"/>
<stop offset="0.552083" stop-color="#02B469"/>
<stop offset="1" stop-color="#029F54"/>
</linearGradient>
<linearGradient id="paint4_linear_2674_4937" x1="114.46" y1="-5.57094" x2="122.256" y2="16.1305" gradientUnits="userSpaceOnUse">
<stop stop-color="#0AFDB1"/>
<stop offset="0.552083" stop-color="#02B469"/>
<stop offset="1" stop-color="#029F54"/>
</linearGradient>
<linearGradient id="paint5_linear_2674_4937" x1="21.722" y1="-5.56945" x2="29.4947" y2="16.1441" gradientUnits="userSpaceOnUse">
<stop stop-color="#0AFDB1"/>
<stop offset="0.552083" stop-color="#02B469"/>
<stop offset="1" stop-color="#029F54"/>
</linearGradient>
<clipPath id="clip0_2674_4937">
<rect width="137.59" height="14.96" fill="white" transform="translate(0 0.0234375)"/>
</clipPath>
</defs>
</svg>
