<svg width="140" height="28" viewBox="0 0 140 28" fill="none" xmlns="http://www.w3.org/2000/svg">
<g clip-path="url(#clip0)">
<path d="M41.8211 12.6987V13.4453C41.6243 13.28 41.4062 13.1307 41.1721 13.0027C40.6401 12.7147 39.9911 12.5654 39.2623 12.5654C38.4005 12.5654 37.6291 12.7734 36.9854 13.184C36.3364 13.5946 35.831 14.1546 35.4693 14.8478C35.1182 15.5357 34.9426 16.3143 34.9426 17.1568C34.9426 17.9887 35.1182 18.762 35.4693 19.4552C35.8257 20.1538 36.3364 20.7191 36.9801 21.1243C37.6291 21.5403 38.3952 21.7483 39.2623 21.7483C39.9964 21.7483 40.6401 21.599 41.1721 21.311C41.4062 21.1883 41.6243 21.039 41.8211 20.8737V21.6149H43.7788V12.6987H41.8211ZM42.2467 17.1622C42.2467 17.7168 42.1403 18.234 41.9222 18.7087C41.7041 19.1833 41.3902 19.5619 40.9646 19.8445C40.5444 20.1325 40.0283 20.2711 39.4219 20.2711C38.8261 20.2711 38.3047 20.1325 37.8685 19.8445C37.4323 19.5619 37.1025 19.1833 36.8737 18.7087C36.645 18.234 36.5279 17.7168 36.5279 17.1622C36.5279 16.5916 36.645 16.0743 36.8737 15.605C37.1025 15.1358 37.4323 14.7572 37.8685 14.4745C38.3047 14.1866 38.8261 14.0479 39.4219 14.0479C40.0337 14.0479 40.5444 14.1866 40.9646 14.4745C41.3849 14.7572 41.7041 15.1358 41.9222 15.605C42.1403 16.0743 42.2467 16.5969 42.2467 17.1622Z" fill="#083063"/>
<path d="M51.8542 18.3194H53.9183L53.78 18.794C53.5193 19.6632 53.0086 20.3831 52.2639 20.9324C51.5244 21.4817 50.62 21.7536 49.572 21.7536C48.6836 21.7536 47.9016 21.5457 47.2526 21.135C46.5983 20.7244 46.0823 20.1645 45.7205 19.4606C45.3641 18.7673 45.1832 17.9941 45.1832 17.1622C45.1832 16.3143 45.3641 15.5411 45.7205 14.8532C46.0823 14.1599 46.5983 13.6 47.2526 13.1894C47.9016 12.7788 48.6836 12.5708 49.572 12.5708C50.6094 12.5708 51.5138 12.8481 52.2639 13.392C53.0086 13.9413 53.5193 14.6612 53.78 15.5304L53.9183 16.005H51.8542L51.7638 15.7757C51.6042 15.3704 51.3489 15.0398 51.0031 14.7945C50.6573 14.5492 50.2317 14.4212 49.737 14.4212C49.205 14.4212 48.7528 14.5439 48.3698 14.7892C47.9761 15.0398 47.6782 15.3704 47.4707 15.7757C47.2579 16.1863 47.1515 16.6503 47.1515 17.1675C47.1515 17.6688 47.2579 18.1328 47.4707 18.5487C47.6782 18.9647 47.9708 19.2899 48.3698 19.5406C48.7581 19.7912 49.2103 19.9139 49.7423 19.9139C50.2423 19.9139 50.6626 19.7912 51.0084 19.5406C51.3648 19.2899 51.6148 18.9647 51.7691 18.5594L51.8542 18.3194Z" fill="#083063"/>
<path d="M63.9408 14.8585C63.5844 14.1599 63.0683 13.6 62.4087 13.1894C61.749 12.7788 60.9564 12.5708 60.052 12.5708C59.153 12.5708 58.3657 12.7788 57.6954 13.1894C57.0304 13.6053 56.5144 14.1653 56.1633 14.8532C55.8122 15.5358 55.6313 16.3143 55.6313 17.1622C55.6313 17.9941 55.8122 18.7673 56.1633 19.4553C56.5197 20.1538 57.0357 20.7191 57.7007 21.135C58.3657 21.5457 59.153 21.7536 60.052 21.7536C60.9617 21.7536 61.749 21.5457 62.4087 21.135C63.063 20.7244 63.579 20.1645 63.9408 19.4553C64.2919 18.762 64.4674 17.9888 64.4674 17.1622C64.4674 16.3197 64.2919 15.5411 63.9408 14.8585ZM60.052 20.2712C59.4509 20.2712 58.9402 20.1325 58.5146 19.8445C58.089 19.5619 57.7698 19.1833 57.5517 18.7087C57.3336 18.2341 57.2219 17.7168 57.2219 17.1622C57.2219 16.5916 57.3336 16.0744 57.5517 15.6051C57.7698 15.1358 58.089 14.7572 58.5146 14.4746C58.9402 14.1866 59.4509 14.0479 60.052 14.0479C60.6585 14.0479 61.1745 14.1866 61.5948 14.4746C62.015 14.7572 62.3342 15.1358 62.5523 15.6051C62.7704 16.069 62.8821 16.5916 62.8821 17.1622C62.8821 17.7168 62.7704 18.2341 62.5523 18.7087C62.3342 19.1833 62.0203 19.5619 61.5948 19.8445C61.1745 20.1325 60.6585 20.2712 60.052 20.2712Z" fill="#083063"/>
<path d="M70.9203 12.5708V14.5332H70.4096C69.8776 14.5332 69.4308 14.6718 69.053 14.9598C68.6594 15.2584 68.3668 15.637 68.1593 16.1063C67.9412 16.5863 67.8348 17.1035 67.8348 17.6528V21.6256H65.8771V12.6987H67.8348V13.7279C67.888 13.664 67.9519 13.6053 68.0157 13.5413C68.2764 13.2747 68.6168 13.04 69.0211 12.8534C69.4361 12.6614 69.9202 12.5654 70.4734 12.5654H70.9203V12.5708Z" fill="#083063"/>
<path d="M78.1977 12.6987V13.44C78.0062 13.28 77.7881 13.1307 77.5541 13.0027C77.0114 12.7147 76.3677 12.5654 75.6389 12.5654C74.7771 12.5654 74.0058 12.7734 73.3568 13.1894C72.7078 13.6 72.2024 14.1599 71.8459 14.8531C71.4948 15.5411 71.314 16.3196 71.314 17.1568C71.314 17.9834 71.4948 18.7513 71.8459 19.4499C72.197 20.1485 72.7078 20.7137 73.3568 21.1243C74.0058 21.5403 74.7718 21.7483 75.6389 21.7483C76.3677 21.7483 77.0114 21.599 77.5541 21.311C77.7881 21.1883 78.0009 21.039 78.1977 20.879V21.6149H80.1554V12.6987H78.1977ZM78.3041 18.7087C78.086 19.1833 77.7669 19.5619 77.3466 19.8445C76.9263 20.1325 76.4103 20.2711 75.8039 20.2711C75.2027 20.2711 74.6867 20.1325 74.2505 19.8445C73.8143 19.5619 73.4791 19.1833 73.2557 18.7087C73.0269 18.234 72.9099 17.7168 72.9099 17.1622C72.9099 16.5916 73.0216 16.0743 73.2557 15.605C73.4844 15.1358 73.8143 14.7572 74.2505 14.4745C74.6867 14.1866 75.2027 14.0479 75.8039 14.0479C76.4156 14.0479 76.9263 14.1866 77.3466 14.4745C77.7615 14.7572 78.0807 15.1358 78.3041 15.605C78.5223 16.069 78.6286 16.5916 78.6286 17.1622C78.6286 17.7168 78.5223 18.234 78.3041 18.7087Z" fill="#083063"/>
<path d="M91.593 19.8337C91.1887 20.127 90.6939 20.2763 90.1141 20.2763C89.5183 20.2763 88.9916 20.1377 88.5447 19.8497C88.0979 19.5671 87.7521 19.1885 87.518 18.7139C87.2786 18.2393 87.1616 17.722 87.1616 17.1674C87.1616 16.5968 87.2786 16.0795 87.518 15.6103C87.7574 15.141 88.0979 14.7624 88.5447 14.4797C88.9916 14.1918 89.5129 14.0531 90.1141 14.0531C90.6939 14.0531 91.1887 14.2024 91.593 14.4957C92.0026 14.789 92.3005 15.173 92.4867 15.6423H93.806C93.5666 14.8477 93.1091 14.1971 92.4282 13.6958C91.7472 13.1946 90.9227 12.9439 89.9545 12.9439C89.1406 12.9439 88.4277 13.1306 87.8319 13.5092C87.2308 13.8878 86.7679 14.3944 86.4328 15.0343C86.0976 15.6743 85.9327 16.3835 85.9327 17.1727C85.9327 17.946 86.0976 18.6552 86.4328 19.3005C86.7679 19.9404 87.2308 20.4523 87.8319 20.8309C88.4277 21.2095 89.1406 21.3962 89.9545 21.3962C90.9227 21.3962 91.7472 21.1456 92.4282 20.6443C93.1091 20.143 93.5719 19.4924 93.806 18.6979H92.4867C92.3005 19.1565 92.0026 19.5404 91.593 19.8337Z" fill="#083063"/>
<path d="M102.227 13.0667V14.3892C101.919 13.9413 101.525 13.5893 101.041 13.3227C100.557 13.0614 99.977 12.9281 99.3014 12.9281C98.5087 12.9281 97.8118 13.1147 97.216 13.4934C96.6202 13.872 96.1627 14.3786 95.8382 15.0185C95.5083 15.6584 95.3488 16.3677 95.3488 17.1569C95.3488 17.9301 95.5083 18.6394 95.8382 19.2846C96.1627 19.9245 96.6255 20.4365 97.216 20.8151C97.8065 21.1937 98.5034 21.3804 99.3014 21.3804C99.977 21.3804 100.557 21.247 101.041 20.9857C101.525 20.7244 101.919 20.3725 102.227 19.9352V21.247H103.451V13.0667H102.227ZM101.967 18.7087C101.748 19.1833 101.435 19.5619 101.009 19.8446C100.594 20.1325 100.073 20.2712 99.4663 20.2712C98.8704 20.2712 98.3491 20.1325 97.9129 19.8446C97.4767 19.5619 97.1468 19.1833 96.9181 18.7087C96.6893 18.2341 96.5723 17.7168 96.5723 17.1622C96.5723 16.5916 96.6893 16.0744 96.9181 15.6051C97.1468 15.1358 97.4767 14.7572 97.9129 14.4746C98.3491 14.1866 98.8704 14.048 99.4663 14.048C100.078 14.048 100.594 14.1866 101.009 14.4746C101.429 14.7572 101.748 15.1358 101.967 15.6051C102.185 16.069 102.291 16.5916 102.291 17.1622C102.291 17.7168 102.185 18.2341 101.967 18.7087Z" fill="#083063"/>
<path d="M113.713 15.0238C113.388 14.3839 112.925 13.8773 112.335 13.4987C111.744 13.1201 111.047 12.9334 110.249 12.9334C109.574 12.9334 108.994 13.0614 108.51 13.3174C108.02 13.5734 107.627 13.9253 107.324 14.3733V13.0614H106.095V24.4946H107.324V19.9246C107.627 20.3618 108.02 20.7138 108.51 20.9804C108.994 21.2471 109.574 21.3804 110.249 21.3804C111.042 21.3804 111.739 21.1937 112.335 20.8151C112.931 20.4365 113.388 19.9246 113.713 19.2846C114.037 18.6394 114.202 17.9301 114.202 17.1569C114.202 16.373 114.037 15.6638 113.713 15.0238ZM112.633 18.7087C112.404 19.1833 112.074 19.5619 111.643 19.8446C111.212 20.1325 110.696 20.2712 110.085 20.2712C109.489 20.2712 108.973 20.1325 108.552 19.8446C108.127 19.5619 107.808 19.1833 107.584 18.7087C107.366 18.2341 107.26 17.7168 107.26 17.1622C107.26 16.5917 107.371 16.0744 107.584 15.6051C107.802 15.1358 108.127 14.7572 108.552 14.4746C108.978 14.1866 109.489 14.048 110.085 14.048C110.696 14.048 111.218 14.1866 111.643 14.4746C112.074 14.7572 112.404 15.1358 112.633 15.6051C112.861 16.069 112.979 16.5917 112.979 17.1622C112.979 17.7168 112.867 18.2341 112.633 18.7087Z" fill="#083063"/>
<path d="M116.293 10.0858V11.6909H117.617V10.0858H116.293ZM116.346 13.0667V21.2577H117.569V13.0667H116.346Z" fill="#083063"/>
<path d="M122.325 13.0667V10.1338H121.096V13.0667H119.431V14.1439H121.096V21.2577H122.325V14.1492H124.203V13.072H122.325V13.0667Z" fill="#083063"/>
<path d="M132.279 13.0667V14.3892C131.975 13.9413 131.582 13.5893 131.092 13.3227C130.608 13.0614 130.028 12.9281 129.353 12.9281C128.56 12.9281 127.863 13.1147 127.267 13.4934C126.677 13.872 126.214 14.3786 125.89 15.0185C125.565 15.6584 125.4 16.3677 125.4 17.1569C125.4 17.9301 125.565 18.6394 125.89 19.2846C126.214 19.9245 126.677 20.4365 127.267 20.8151C127.863 21.1937 128.555 21.3804 129.353 21.3804C130.028 21.3804 130.608 21.247 131.092 20.9857C131.582 20.7244 131.975 20.3725 132.279 19.9352V21.247H133.507V13.0667H132.279ZM132.018 18.7087C131.8 19.1833 131.481 19.5619 131.06 19.8446C130.645 20.1325 130.124 20.2712 129.518 20.2712C128.917 20.2712 128.401 20.1325 127.964 19.8446C127.528 19.5619 127.193 19.1833 126.964 18.7087C126.735 18.2341 126.624 17.7168 126.624 17.1622C126.624 16.5916 126.735 16.0744 126.964 15.6051C127.193 15.1358 127.528 14.7572 127.964 14.4746C128.401 14.1866 128.917 14.048 129.518 14.048C130.124 14.048 130.64 14.1866 131.06 14.4746C131.481 14.7572 131.8 15.1358 132.018 15.6051C132.236 16.069 132.342 16.5916 132.342 17.1622C132.342 17.7168 132.236 18.2341 132.018 18.7087Z" fill="#083063"/>
<path d="M136.151 9.79255V21.2578H137.375V9.79255H136.151Z" fill="#083063"/>
<path d="M32.2136 7.27023L27.3141 12.2136L23.9467 8.85936C23.9467 8.85936 25.2287 7.27023 28.0801 7.27023C30.9315 7.27023 32.2136 7.27023 32.2136 7.27023Z" fill="#083063"/>
<path d="M25.6703 13.8186L22.3507 17.1462L8.74805 3.52125C8.74805 3.52125 11.9559 3.41993 13.1901 3.67056C14.4243 3.9212 16.2489 4.45446 17.6108 5.72897C18.9727 7.00347 25.6703 13.8186 25.6703 13.8186Z" fill="#083063"/>
<path d="M20.7335 18.7513C18.9833 21.1617 16.8235 21.7536 16.1745 21.8869C15.5308 22.0256 10.86 21.9563 10.86 21.9563C10.86 21.9563 12.1687 20.9857 12.1846 18.8633C12.2006 17.1355 10.9611 15.6691 10.4983 15.1785L10.493 15.1731C10.3972 15.0718 10.3387 15.0185 10.328 15.0078L2.625 7.29145C2.625 7.29145 5.83283 7.19013 7.06702 7.44077C8.3012 7.6914 10.1259 8.22467 11.4878 9.49917C12.6209 10.5604 17.4725 15.4824 19.0525 17.0822L19.0631 17.0929L19.0897 17.1195L20.7335 18.7513Z" fill="#083063"/>
<path d="M10.4983 15.1785L10.3334 15.0132C10.344 15.0185 10.4025 15.0772 10.4983 15.1785Z" fill="#083063"/>
</g>
<defs>
<clipPath id="clip0">
<rect width="134.75" height="21" fill="white" transform="translate(2.625 3.5)"/>
</clipPath>
</defs>
</svg>
