<?xml version="1.0" standalone="no"?>
<!DOCTYPE svg PUBLIC "-//W3C//DTD SVG 20010904//EN"
 "http://www.w3.org/TR/2001/REC-SVG-20010904/DTD/svg10.dtd">
<svg version="1.0" xmlns="http://www.w3.org/2000/svg"
 width="512.000000pt" height="512.000000pt" viewBox="0 0 512.000000 512.000000"
 preserveAspectRatio="xMidYMid meet">

<g transform="translate(0.000000,512.000000) scale(0.100000,-0.100000)"
fill="#000000" stroke="none">
<path d="M2465 5113 c-638 -21 -1253 -289 -1711 -747 -413 -413 -666 -940
-734 -1526 -28 -236 -9 -576 45 -825 115 -530 405 -1022 806 -1370 772 -670
1819 -828 2743 -414 964 431 1566 1433 1496 2489 -45 680 -359 1320 -861 1755
-506 439 -1122 659 -1784 638z m1443 -1520 l2 -753 53 -1 c41 0 86 -15 212
-68 l160 -67 3 -141 c2 -107 -1 -142 -10 -146 -7 -3 -84 -35 -170 -71 -116
-48 -170 -66 -203 -66 l-45 0 0 -413 0 -413 -337 -337 -338 -337 -1002 0
-1003 0 0 750 0 750 -280 0 -280 0 0 68 c0 38 -3 164 -7 280 l-6 212 286 0
287 0 0 748 c0 412 3 752 7 755 3 4 605 6 1337 5 l1331 -3 3 -752z"/>
</g>
</svg>
