<svg id="OBJECT" height="512" viewBox="0 0 512 512" width="512" xmlns="http://www.w3.org/2000/svg"><path d="m497 421h-16v-182a35 35 0 0 0 -20.79-32l-69.21-30.75v-80.25a35 35 0 0 0 -35-35h-200a35 35 0 0 0 -35 35v80.25l-69.21 30.75a35 35 0 0 0 -20.79 32v182h-16a15 15 0 0 0 0 30h482a15 15 0 0 0 0-30zm-376 0h-60v-182a5 5 0 0 1 3-4.57l57-25.35zm160 0h-50v-45a25 25 0 0 1 50 0zm80 0h-50v-45a55 55 0 0 0 -110 0v45h-50v-325a5 5 0 0 1 5-5h200a5 5 0 0 1 5 5zm90 0h-60v-211.92l57 25.35a5 5 0 0 1 3 4.57z"/><path d="m311 121h-110a15 15 0 0 0 0 30h110a15 15 0 0 0 0-30z"/><path d="m311 181h-110a15 15 0 0 0 0 30h110a15 15 0 0 0 0-30z"/><path d="m311 241h-110a15 15 0 0 0 0 30h110a15 15 0 0 0 0-30z"/></svg>