<svg height="511pt" viewBox="-29 1 511 511.999" width="511pt" xmlns="http://www.w3.org/2000/svg"><path d="m431.707031 322.019531c-10.382812-5.988281-22.484375-7.585937-34.144531-4.480469-6.558594 1.75-12.238281 5.175782-17.253906 9.449219l-29.410156-16.976562c7.273437-16.570313 11.449218-34.789063 11.449218-54.011719s-4.175781-37.441406-11.449218-54.011719l29.410156-16.976562c5.015625 4.273437 10.699218 7.699219 17.253906 9.449219 3.882812 1.042968 7.808594 1.554687 11.71875 1.554687 7.792969 0 15.5-2.035156 22.425781-6.035156 21.476563-12.40625 28.875-39.976563 16.480469-61.480469-12.4375-21.472656-39.976562-28.886719-61.464844-16.476562h-.03125c-16.898437 9.773437-24.886718 28.921874-21.554687 47.105468l-29.515625 17.035156c-21.769532-29.433593-55.066406-49.347656-93.273438-53.644531v-35.28125c17.421875-6.214843 30-22.707031 30-42.238281 0-24.8125-20.183594-45-45-45-24.8125 0-45 20.1875-45 45 0 19.53125 12.578125 36.023438 30 42.238281v35.277344c-38.207031 4.296875-71.503906 24.214844-93.273437 53.644531l-29.511719-17.035156c3.328125-18.183594-4.660156-37.332031-21.558594-47.105469h-.03125c-21.472656-12.390625-49.042968-4.996093-61.464844 16.496094-12.390624 21.488281-4.996093 49.054687 16.480469 61.464844 6.929688 3.996093 14.617188 6.035156 22.425781 6.035156 3.894532 0 7.835938-.515625 11.71875-1.554687 6.558594-1.75 12.238282-5.175782 17.253907-9.449219l29.410156 16.976562c-7.273437 16.570313-11.449219 34.789063-11.449219 54.011719s4.175782 37.441406 11.449219 54.011719l-29.410156 16.976562c-5.015625-4.273437-10.699219-7.699219-17.253907-9.449219-11.613281-3.105468-23.742187-1.523437-34.144531 4.480469-21.476562 12.410157-28.871093 39.976563-16.480469 61.480469 8.335938 14.414062 23.480469 22.484375 39.054688 22.484375 7.628906 0 15.363281-1.933594 22.441406-6.003906 16.898438-9.777344 24.886719-28.925781 21.554688-47.109375l29.515625-17.035156c21.769531 29.433593 55.066406 49.351562 93.273437 53.648437v35.277344c-17.421875 6.214843-30 22.707031-30 42.238281 0 24.8125 20.1875 45 45 45 24.816406 0 45-20.1875 45-45 0-19.53125-12.578125-36.023438-30-42.238281v-35.277344c38.207032-4.296875 71.507813-24.214844 93.273438-53.648437l29.515625 17.035156c-3.332031 18.1875 4.664062 37.332031 21.585937 47.109375 7.0625 4.070312 14.78125 6.003906 22.398438 6.003906 15.570312 0 30.730468-8.070313 39.066406-22.5 12.394531-21.488281 4.996094-49.054687-16.480469-61.464844zm-249.359375-141.019531h90v30h-90zm90 150h-90v-30h90zm15-60h-120v-30h120zm0 0"/></svg>