<svg width="24" height="24" viewBox="0 0 24 24" fill="none" xmlns="http://www.w3.org/2000/svg">
<path d="M9.72757 9.1106V9.10996L13.9823 11.6617L16.5175 10.5932C17.0328 10.3703 17.5883 10.2557 18.1496 10.2564C18.2434 10.2564 18.3358 10.2609 18.4277 10.2666C18.123 9.07651 17.4796 8.00068 16.5757 7.16986C15.6717 6.33903 14.5462 5.78901 13.336 5.58663C12.1257 5.38425 10.8828 5.53824 9.75826 6.02988C8.63375 6.52152 7.6761 7.32963 7.00171 8.356L7.06631 8.35409C8.0065 8.35286 8.9283 8.6149 9.72757 9.1106Z" fill="#0364B8"/>
<path d="M9.7279 9.10997C8.92838 8.61438 8.00635 8.35256 7.06601 8.3541L7.00141 8.356C6.08118 8.36753 5.18148 8.62988 4.39897 9.11488C3.61647 9.59987 2.98073 10.2892 2.56007 11.1087C2.1394 11.9283 1.94972 12.8471 2.01139 13.7665C2.07305 14.6858 2.38375 15.571 2.91008 16.3269L6.66068 14.746L8.32887 14.0434L12.0421 12.4784L13.9814 11.6617L9.7279 9.10997Z" fill="#0078D4"/>
<path d="M18.4275 10.2666C18.335 10.2601 18.2423 10.2567 18.1495 10.2565C17.5884 10.256 17.0331 10.3708 16.518 10.5938L13.9822 11.6617L14.7175 12.1024L17.1273 13.5475L18.1786 14.1778L21.7741 16.3338C22.1007 15.7267 22.27 15.0471 22.2665 14.3575C22.2629 13.6678 22.0865 12.9901 21.7535 12.3864C21.4205 11.7827 20.9415 11.2722 20.3604 10.9019C19.7794 10.5316 19.1148 10.3131 18.4275 10.2666Z" fill="#1490DF"/>
<path d="M18.1786 14.1779L17.1272 13.5475L14.7174 12.1017L13.9827 11.6617L12.0429 12.4784L8.32963 14.0434L6.6608 14.746L2.90894 16.3269C3.37527 16.9981 3.99696 17.5464 4.72089 17.9248C5.44482 18.3032 6.24948 18.5006 7.06613 18.5H18.1494C18.8927 18.5003 19.6221 18.299 20.2602 17.9177C20.8984 17.5363 21.4215 16.989 21.774 16.3339L18.1786 14.1779Z" fill="#28A8EA"/>
</svg>
