<?xml version="1.0" encoding="iso-8859-1"?>
<!-- Generator: Adobe Illustrator 18.0.0, SVG Export Plug-In . SVG Version: 6.00 Build 0)  -->
<!DOCTYPE svg PUBLIC "-//W3C//DTD SVG 1.1//EN" "http://www.w3.org/Graphics/SVG/1.1/DTD/svg11.dtd">
<svg version="1.1" id="Capa_1" xmlns="http://www.w3.org/2000/svg" xmlns:xlink="http://www.w3.org/1999/xlink" x="0px" y="0px"
	 viewBox="0 0 230.243 230.243" style="enable-background:new 0 0 230.243 230.243;" xml:space="preserve">
<path d="M219.636,204.145l10.607-10.606l-34.126-34.126c8.399-10.676,13.43-24.123,13.43-38.729
	c0-28.565-19.186-52.718-45.343-60.291c-17.199-22.901-44.278-36.492-72.985-36.492C40.921,23.901,0,64.822,0,115.122
	s40.921,91.221,91.219,91.221c22.506,0,43.927-8.202,60.655-23.118c12.633-1.02,24.214-5.792,33.636-13.204L219.636,204.145z
	 M129.535,181.021c-5.085,2.964-10.487,5.314-16.105,7.021c1.702-3.401,3.272-7.254,4.696-11.543
	C121.741,178.362,125.557,179.882,129.535,181.021z M91.219,191.342c-2.474,0-7.875-5.165-12.617-19.393
	c-2.045-6.134-3.709-13.127-4.971-20.705c5.7-0.423,11.594-0.646,17.588-0.646c0.132,0,0.261,0.004,0.393,0.004
	c3.507,6.439,8.116,12.19,13.562,17.021C100.255,184.803,94.14,191.342,91.219,191.342z M15,115.122
	c0-11.451,2.555-22.313,7.098-32.067c9.288,4.092,21.232,7.228,34.743,9.201c-0.673,7.374-1.028,15.044-1.028,22.867
	c0,7.823,0.355,15.492,1.028,22.867c-13.512,1.973-25.455,5.108-34.742,9.2C17.555,137.434,15,126.573,15,115.122z M70.813,115.122
	c0-7.281,0.322-14.396,0.933-21.217c5.814,0.449,11.82,0.697,17.947,0.732c-3.639,7.941-5.683,16.758-5.683,26.048
	c0,5.16,0.639,10.171,1.818,14.972c-4.79,0.099-9.496,0.329-14.083,0.683C71.135,129.518,70.813,122.403,70.813,115.122z
	 M91.219,38.901c3.043,0,11.044,8.409,16.229,32.915c-2.876,2.32-5.54,4.889-7.968,7.672c-2.742,0.094-5.502,0.157-8.263,0.157
	c-5.993,0-11.887-0.223-17.587-0.646c1.263-7.578,2.927-14.571,4.972-20.705C83.344,44.065,88.745,38.901,91.219,38.901z
	 M120.929,63.507c-2.056-8.323-4.578-15.461-7.499-21.283c10.465,3.197,20.155,8.621,28.376,15.905
	C134.415,58.711,127.384,60.577,120.929,63.507z M68.97,42.222c-1.598,3.218-3.143,6.96-4.599,11.328
	c-2.358,7.072-4.259,15.12-5.667,23.816c-11.237-1.654-21.179-4.155-28.895-7.325C39.428,56.974,53.104,47.074,68.97,42.222z
	 M29.809,160.202c7.716-3.169,17.657-5.671,28.895-7.325c1.408,8.696,3.309,16.744,5.667,23.816
	c1.456,4.368,3.001,8.11,4.599,11.328C53.104,183.169,39.428,173.269,29.809,160.202z M146.779,168.449
	c-26.34,0-47.77-21.427-47.77-47.765c0-26.341,21.43-47.771,47.77-47.771c26.339,0,47.768,21.43,47.768,47.771
	C194.547,147.021,173.118,168.449,146.779,168.449z"/>
<g>
</g>
<g>
</g>
<g>
</g>
<g>
</g>
<g>
</g>
<g>
</g>
<g>
</g>
<g>
</g>
<g>
</g>
<g>
</g>
<g>
</g>
<g>
</g>
<g>
</g>
<g>
</g>
<g>
</g>
</svg>
