<svg width="32" height="32" viewBox="0 0 32 32" fill="none" xmlns="http://www.w3.org/2000/svg">
<path d="M28.7528 8.82584L28.9997 28.3987C28.9997 29.0566 28.4235 29.6323 27.765 29.6323H8.74988C8.09135 29.6323 7.51514 29.0566 7.51514 28.3987V3.23359C7.51514 2.57567 8.09135 2 8.74988 2H22.579L28.7528 8.82584Z" fill="#DDE3EB"/>
<path d="M28.8571 14.5121L23.8523 8.67308L28.023 8.25601L28.8571 8.67308V14.5121Z" fill="#C5CBD7"/>
<path d="M22.1626 26.7774H4.69082C3.84541 26.7774 3 26.0996 3 25.1508V17.5602C3 16.7469 3.70451 15.9336 4.69082 15.9336H22.1626C23.0081 15.9336 23.8535 16.6113 23.8535 17.5602V25.1508C23.7126 26.0996 23.0081 26.7774 22.1626 26.7774Z" fill="#D63D3D"/>
<path d="M8.80008 18.8496C9.86778 18.8496 10.5796 19.5399 10.5796 20.5754C10.5796 21.6109 9.86778 22.3012 8.80008 22.3012H7.82136V23.8544H6.75366V18.8496H8.80008ZM7.82136 21.4383H8.53316C9.15598 21.4383 9.51188 21.0932 9.51188 20.5754C9.51188 19.9714 9.15598 19.7125 8.53316 19.7125H7.82136V21.4383Z" fill="white"/>
<path d="M13.3378 18.8496C14.8504 18.8496 15.7401 19.7125 15.7401 21.2657C15.7401 22.819 14.8504 23.7682 13.3378 23.7682H11.3804V18.8496H13.3378ZM12.4481 22.9052H13.1599C14.1386 22.9052 14.6724 22.3012 14.6724 21.2657C14.6724 20.2303 14.1386 19.7125 13.2488 19.7125H12.4481V22.9052Z" fill="white"/>
<path d="M16.7175 23.7682V18.8496H20.0986V19.7125H17.7852V21.0069H19.8316V21.7835H17.7852V23.7682H16.7175Z" fill="white"/>
<path d="M22.6025 2.00003V7.33397C22.6025 8.07412 23.2611 8.73203 24.0019 8.73203H28.9017" fill="#9CA3AF"/>
</svg>
