<svg id="Layer_1" enable-background="new 0 0 512 512" height="512" viewBox="0 0 512 512" width="512" xmlns="http://www.w3.org/2000/svg"><path clip-rule="evenodd" d="m298.091 42.887c28.702 5.637 55.371 16.934 78.81 32.669l42.029-18.666 36.18 36.179-18.66 42.015c15.742 23.441 27.036 50.12 32.674 78.828l42.876 16.504v51.167l-42.887 16.509c-5.637 28.702-16.934 55.37-32.669 78.809l18.665 42.029-36.179 36.18-42.015-18.661c-23.441 15.742-50.121 27.035-78.827 32.674l-16.504 42.877h-51.166l-16.509-42.887c-28.702-5.637-55.37-16.934-78.809-32.669l-42.029 18.666-36.181-36.18 18.661-42.015c-15.743-23.441-27.035-50.122-32.674-78.828l-42.877-16.504v-51.167l42.884-16.507c5.637-28.704 16.932-55.377 32.67-78.814l-18.664-42.024 36.18-36.18 42.027 18.666c23.44-15.735 50.109-27.032 78.811-32.669l16.509-42.888h51.166zm-121.369 209.805 9.145-6.644v83.026c0 11.869 9.711 21.58 21.579 21.58h27.637v-72.392c0-5.583 4.568-10.151 10.151-10.151h21.533c5.583 0 10.151 4.568 10.151 10.151v72.392h27.636c11.869 0 21.58-9.711 21.58-21.58v-83.026l9.145 6.644c6.749 4.891 16.185 3.384 21.076-3.365 4.89-6.749 3.384-16.185-3.365-21.076l-87.872-63.843c-5.156-3.91-12.46-4.184-17.972-.19l-88.133 64.033c-6.749 4.89-8.255 14.326-3.365 21.076 4.889 6.749 14.325 8.256 21.074 3.365zm79.278-145.006c-81.912 0-148.314 66.403-148.314 148.314s66.403 148.313 148.314 148.313 148.313-66.402 148.313-148.313c.001-81.911-66.402-148.314-148.313-148.314z" fill-rule="evenodd"/></svg>