<svg width="24" height="24" viewBox="0 0 24 24" fill="none" xmlns="http://www.w3.org/2000/svg">
<g clip-path="url(#clip0)">
<path d="M21.85 14C21 16.5 20.7713 17.3757 19.0711 19.0711C15.1658 22.9764 8.83433 22.9764 4.92898 19.0711C1.02363 15.1657 1.02363 8.83428 4.92898 4.92893C8.83433 1.02358 15.1658 1.02358 19.0711 4.92893C20.5815 6.43931 21.5078 8.31315 21.85 10.2676L15.5356 8.46447L17.6569 6.34315C16.353 5.03949 14.6389 4.22624 12.8044 4.04096C10.97 3.85568 9.12781 4.30974 7.5896 5.32634C6.05139 6.34294 4.91155 7.85967 4.3629 9.61994C3.81425 11.3802 3.89048 13.276 4.57868 14.9865C5.26689 16.697 6.52482 18.1174 8.13969 19.0072C9.75456 19.897 11.6272 20.2017 13.4409 19.8697C15.2545 19.5378 16.8979 18.5895 18.0929 17.1854C19.2878 15.7813 19.5 15 19.8758 13.4357L21.85 14Z" fill="black"/>
</g>
<defs>
<clipPath id="clip0">
<rect width="24" height="24" fill="white"/>
</clipPath>
</defs>
</svg>
