<svg id="Layer_1" height="512" viewBox="0 0 32 32" width="512" xmlns="http://www.w3.org/2000/svg" data-name="Layer 1"><path d="m27.99909 6.00009a2.006 2.006 0 0 0 -1.99983-2.00018h-1.99984a2.006 2.006 0 0 0 -1.99989 2.00018v19.99982a2.00622 2.00622 0 0 0 1.99989 2.00018h1.99984a2.00622 2.00622 0 0 0 1.99983-2.00018zm-8.99934 6a2.00053 2.00053 0 0 0 -1.99983-2.00017h-1.99984a2.00058 2.00058 0 0 0 -1.99983 2.00017v13.99982a2.00058 2.00058 0 0 0 1.99983 2.00018h1.99984a2.00054 2.00054 0 0 0 1.99983-2.00018v-13.99981zm-8.99928 6a2.00048 2.00048 0 0 0 -1.99989-2h-1.99984a2.00047 2.00047 0 0 0 -1.99983 2v7.9998a2.00058 2.00058 0 0 0 1.99983 2.00018h1.99984a2.00059 2.00059 0 0 0 1.99989-2.00018z" fill-rule="evenodd"/></svg>