<svg width="135" height="128" viewBox="0 0 135 128" fill="none" xmlns="http://www.w3.org/2000/svg">
<path d="M67.1677 113.381C95.3953 113.381 118.28 90.9532 118.28 63.1904C118.28 35.4276 95.3953 13 67.1677 13C38.9402 13 16.0557 35.4276 16.0557 63.1904C16.0557 90.9532 38.9402 113.381 67.1677 113.381Z" fill="#DDE3EB"/>
<path d="M124.128 42.5412C126.411 42.5412 128.262 40.7276 128.262 38.4904C128.262 36.2532 126.411 34.4396 124.128 34.4396C121.846 34.4396 119.995 36.2532 119.995 38.4904C119.995 40.7276 121.846 42.5412 124.128 42.5412Z" fill="#DDE3EB"/>
<path d="M130.176 26.6344C131.735 26.6344 132.999 25.3958 132.999 23.868C132.999 22.3401 131.735 21.1016 130.176 21.1016C128.617 21.1016 127.354 22.3401 127.354 23.868C127.354 25.3958 128.617 26.6344 130.176 26.6344Z" fill="#DDE3EB"/>
<path d="M12.5278 45.4063C14.0868 45.4063 15.3506 44.1678 15.3506 42.6399C15.3506 41.1121 14.0868 39.8735 12.5278 39.8735C10.9689 39.8735 9.70508 41.1121 9.70508 42.6399C9.70508 44.1678 10.9689 45.4063 12.5278 45.4063Z" fill="#DDE3EB"/>
<path d="M17.7716 105.576C20.6668 105.576 23.0138 103.275 23.0138 100.438C23.0138 97.6006 20.6668 95.3004 17.7716 95.3004C14.8763 95.3004 12.5293 97.6006 12.5293 100.438C12.5293 103.275 14.8763 105.576 17.7716 105.576Z" fill="#DDE3EB"/>
<g filter="url(#filter0_d)">
<path d="M114.55 43.1339H27.1454C25.23 43.1339 23.7178 41.6519 23.7178 39.7747V20.5087C23.7178 18.6315 25.23 17.1495 27.1454 17.1495H114.449C116.365 17.1495 117.877 18.6315 117.877 20.5087V39.7747C117.978 41.6519 116.365 43.1339 114.55 43.1339Z" fill="white"/>
</g>
<path d="M44.8875 30.0924C44.8875 32.266 43.8794 34.242 42.3672 35.6252C41.0567 36.8108 39.242 37.5024 37.3266 37.5024C35.4111 37.5024 33.5965 36.8108 32.2859 35.6252C30.6729 34.242 29.7656 32.266 29.7656 30.0924C29.7656 26.0416 33.1933 22.6824 37.3266 22.6824C41.4599 22.6824 44.8875 26.0416 44.8875 30.0924Z" fill="#DDE3EB"/>
<path d="M37.499 30C38.3275 30 38.999 29.3284 38.999 28.5C38.999 27.6716 38.3275 27 37.499 27C36.6706 27 35.999 27.6716 35.999 28.5C35.999 29.3284 36.6706 30 37.499 30Z" stroke="#939DAE" stroke-miterlimit="10" stroke-linecap="round" stroke-linejoin="round"/>
<path d="M34.999 33C34.999 31.3585 36.1311 30 37.499 30C38.8669 30 39.999 31.3585 39.999 33" stroke="#939DAE" stroke-miterlimit="10" stroke-linecap="round" stroke-linejoin="round"/>
<path d="M69.687 26.8679H50.3309C49.8269 26.8679 49.5244 26.5752 49.5244 26.2826V24.4533C49.5244 24.0874 49.9277 23.8679 50.3309 23.8679H69.687C70.191 23.8679 70.4935 24.1606 70.4935 24.4533V26.2826C70.4935 26.6484 70.191 26.8679 69.687 26.8679Z" fill="#526E91"/>
<path d="M92.6723 35.2659H50.3309C49.8269 35.2659 49.5244 34.9732 49.5244 34.6805V32.8512C49.5244 32.4854 49.9277 32.2659 50.3309 32.2659H92.6723C93.1763 32.2659 93.4788 32.5586 93.4788 32.8512V34.6805C93.4788 35.0464 93.0755 35.2659 92.6723 35.2659Z" fill="#526E91"/>
<g filter="url(#filter1_d)">
<path d="M114.55 107.947H27.1454C25.23 107.947 23.7178 106.465 23.7178 104.588V85.3216C23.7178 83.4444 25.23 81.9624 27.1454 81.9624H114.449C116.365 81.9624 117.877 83.4444 117.877 85.3216V104.588C117.978 106.465 116.365 107.947 114.55 107.947Z" fill="white"/>
</g>
<path d="M44.8875 94.9052C44.8875 97.0788 43.8794 99.0548 42.3672 100.438C41.0567 101.624 39.242 102.315 37.3266 102.315C35.4111 102.315 33.5965 101.624 32.2859 100.438C30.6729 99.0548 29.7656 97.0788 29.7656 94.9052C29.7656 90.8544 33.1933 87.4952 37.3266 87.4952C41.4599 87.4952 44.8875 90.8544 44.8875 94.9052Z" fill="#DDE3EB"/>
<path d="M37.499 95C38.3275 95 38.999 94.3284 38.999 93.5C38.999 92.6716 38.3275 92 37.499 92C36.6706 92 35.999 92.6716 35.999 93.5C35.999 94.3284 36.6706 95 37.499 95Z" stroke="#939DAE" stroke-miterlimit="10" stroke-linecap="round" stroke-linejoin="round"/>
<path d="M34.999 98C34.999 96.3585 36.1311 95 37.499 95C38.8669 95 39.999 96.3585 39.999 98" stroke="#939DAE" stroke-miterlimit="10" stroke-linecap="round" stroke-linejoin="round"/>
<path d="M69.687 91.7795H50.3309C49.8269 91.7795 49.5244 91.4869 49.5244 91.1942V89.3649C49.5244 88.9991 49.9277 88.7795 50.3309 88.7795H69.687C70.191 88.7795 70.4935 89.0722 70.4935 89.3649V91.1942C70.4935 91.4869 70.191 91.7795 69.687 91.7795Z" fill="#526E91"/>
<path d="M92.6723 100.177H50.3309C49.8269 100.177 49.5244 99.8848 49.5244 99.5921V97.7629C49.5244 97.397 49.9277 97.1775 50.3309 97.1775H92.6723C93.1763 97.1775 93.4788 97.4702 93.4788 97.7629V99.5921C93.4788 99.8848 93.0755 100.177 92.6723 100.177Z" fill="#526E91"/>
<g filter="url(#filter2_d)">
<path d="M99.7315 75.5404H12.4276C10.5122 75.5404 9 74.0584 9 72.1812V52.9152C9 51.038 10.5122 49.556 12.4276 49.556H99.7315C101.647 49.556 103.159 51.038 103.159 52.9152V72.1812C103.26 74.0584 101.647 75.5404 99.7315 75.5404Z" fill="white"/>
</g>
<path d="M54.9682 59.2744H35.6122C35.1081 59.2744 34.8057 58.9817 34.8057 58.689V56.8598C34.8057 56.4939 35.2089 56.2744 35.6122 56.2744H54.9682C55.4723 56.2744 55.7747 56.5671 55.7747 56.8598V58.689C55.7747 59.0549 55.4723 59.2744 54.9682 59.2744Z" fill="#526E91"/>
<path d="M77.9545 67.7712H35.6131C35.1091 67.7712 34.8066 67.4786 34.8066 67.1859V65.3566C34.8066 64.9908 35.2099 64.7712 35.6131 64.7712H77.8537C78.3578 64.7712 78.6602 65.0639 78.6602 65.3566V67.1859C78.761 67.4786 78.3578 67.7712 77.9545 67.7712Z" fill="#526E91"/>
<path d="M30.2716 62.4989C30.2716 64.5737 29.3642 66.4509 27.9529 67.8341C27.8521 67.9329 27.8521 67.9329 27.7512 68.0317C26.4407 69.2173 24.626 69.9089 22.7106 69.9089C20.7952 69.9089 19.0813 69.2173 17.7708 68.1305C17.7708 68.1305 17.7708 68.1305 17.67 68.1305C16.057 66.7473 15.0488 64.7713 15.0488 62.4989C15.0488 58.4481 18.4765 55.0889 22.6098 55.0889C26.8439 55.0889 30.2716 58.4481 30.2716 62.4989Z" fill="#DDE3EB"/>
<path d="M20.5947 63.9808C20.6957 64.0798 20.7967 64.1788 20.8977 64.2778C20.7967 64.1788 20.6957 64.0798 20.5947 63.9808Z" fill="#3973F4"/>
<path d="M22.5 63C23.3284 63 24 62.3284 24 61.5C24 60.6716 23.3284 60 22.5 60C21.6716 60 21 60.6716 21 61.5C21 62.3284 21.6716 63 22.5 63Z" stroke="#939DAE" stroke-miterlimit="10" stroke-linecap="round" stroke-linejoin="round"/>
<path d="M20 66C20 64.3585 21.1321 63 22.5 63C23.8679 63 25 64.3585 25 66" stroke="#939DAE" stroke-miterlimit="10" stroke-linecap="round" stroke-linejoin="round"/>
<defs>
<filter id="filter0_d" x="14.7178" y="13.1495" width="112.164" height="43.9844" filterUnits="userSpaceOnUse" color-interpolation-filters="sRGB">
<feFlood flood-opacity="0" result="BackgroundImageFix"/>
<feColorMatrix in="SourceAlpha" type="matrix" values="0 0 0 0 0 0 0 0 0 0 0 0 0 0 0 0 0 0 127 0" result="hardAlpha"/>
<feOffset dy="5"/>
<feGaussianBlur stdDeviation="4.5"/>
<feColorMatrix type="matrix" values="0 0 0 0 0.397708 0 0 0 0 0.47749 0 0 0 0 0.575 0 0 0 0.17 0"/>
<feBlend mode="normal" in2="BackgroundImageFix" result="effect1_dropShadow"/>
<feBlend mode="normal" in="SourceGraphic" in2="effect1_dropShadow" result="shape"/>
</filter>
<filter id="filter1_d" x="14.7178" y="77.9624" width="112.164" height="43.9844" filterUnits="userSpaceOnUse" color-interpolation-filters="sRGB">
<feFlood flood-opacity="0" result="BackgroundImageFix"/>
<feColorMatrix in="SourceAlpha" type="matrix" values="0 0 0 0 0 0 0 0 0 0 0 0 0 0 0 0 0 0 127 0" result="hardAlpha"/>
<feOffset dy="5"/>
<feGaussianBlur stdDeviation="4.5"/>
<feColorMatrix type="matrix" values="0 0 0 0 0.397708 0 0 0 0 0.47749 0 0 0 0 0.575 0 0 0 0.17 0"/>
<feBlend mode="normal" in2="BackgroundImageFix" result="effect1_dropShadow"/>
<feBlend mode="normal" in="SourceGraphic" in2="effect1_dropShadow" result="shape"/>
</filter>
<filter id="filter2_d" x="0" y="45.556" width="112.164" height="43.9844" filterUnits="userSpaceOnUse" color-interpolation-filters="sRGB">
<feFlood flood-opacity="0" result="BackgroundImageFix"/>
<feColorMatrix in="SourceAlpha" type="matrix" values="0 0 0 0 0 0 0 0 0 0 0 0 0 0 0 0 0 0 127 0" result="hardAlpha"/>
<feOffset dy="5"/>
<feGaussianBlur stdDeviation="4.5"/>
<feColorMatrix type="matrix" values="0 0 0 0 0.397708 0 0 0 0 0.47749 0 0 0 0 0.575 0 0 0 0.17 0"/>
<feBlend mode="normal" in2="BackgroundImageFix" result="effect1_dropShadow"/>
<feBlend mode="normal" in="SourceGraphic" in2="effect1_dropShadow" result="shape"/>
</filter>
</defs>
</svg>
