<svg width="128" height="128" viewBox="0 0 128 128" fill="none" xmlns="http://www.w3.org/2000/svg">
<mask id="mask0" style="mask-type:alpha" maskUnits="userSpaceOnUse" x="0" y="0" width="128" height="128">
<rect width="128" height="128" fill="#C4C4C4"/>
</mask>
<g mask="url(#mask0)">
<path d="M125.652 63.7807C125.652 85.4742 114.109 104.473 96.8174 114.938C96.0987 115.387 95.3801 115.791 94.6615 116.196L101.264 67.1493C101.399 66.1612 100.68 65.2629 99.7368 65.1281C98.7487 64.9934 97.8504 65.6671 97.7157 66.6552L90.7989 118.127C89.0472 118.935 87.2507 119.654 85.4541 120.283L90.3947 67.0594C90.4845 66.0713 89.7659 65.218 88.7777 65.1281C87.7896 65.0383 86.8913 65.7569 86.8464 66.745L81.7262 121.45C80.0195 121.9 78.2229 122.304 76.4713 122.618L79.211 66.9696C79.2559 65.9815 78.4924 65.1281 77.5043 65.0832C76.5162 65.0383 75.6628 65.8019 75.6179 66.79L72.8332 123.157C71.1265 123.337 69.4647 123.472 67.713 123.517V66.9247C67.713 65.9366 66.9046 65.1281 65.9164 65.1281C64.9283 65.1281 64.1199 65.9366 64.1199 66.9247V123.561C62.5479 123.517 61.0208 123.427 59.4937 123.247L56.709 66.8349C56.6641 65.8468 55.8108 65.0832 54.8227 65.1281C53.8345 65.1731 53.071 66.0264 53.1159 67.0145L55.8557 122.753C54.0591 122.439 52.3075 122.079 50.6007 121.63L45.4356 66.745C45.3458 65.7569 44.4924 65.0383 43.5043 65.1281C42.5162 65.218 41.7976 66.1162 41.8874 67.0594L46.8729 120.507C45.0314 119.878 43.2797 119.205 41.5281 118.441L34.5664 66.7001C34.4316 65.712 33.5334 65.0383 32.5452 65.1731C31.5571 65.3078 30.8834 66.2061 31.0182 67.1942L37.6205 116.555C36.7672 116.106 35.9587 115.657 35.1503 115.162C17.7236 104.697 6.0459 85.609 6.0459 63.7807C6.0459 30.7688 32.8147 4 65.8266 4C98.8834 4 125.652 30.7688 125.652 63.7807Z" fill="#DDE3EB"/>
<path fill-rule="evenodd" clip-rule="evenodd" d="M9.58576 19.3165C10.1652 19.5014 10.7425 19.6934 11.3176 19.8923L10.6636 21.7824C10.1038 21.5887 9.54182 21.4018 8.97783 21.2219L9.58576 19.3165ZM14.7369 21.169C15.8657 21.6219 16.984 22.1021 18.0904 22.6093L17.257 24.4274C16.1799 23.9337 15.0912 23.4661 13.9922 23.0252L14.7369 21.169ZM21.3704 24.2099C22.4507 24.7698 23.5175 25.3559 24.5693 25.9677L23.5638 27.6965C22.5401 27.1011 21.5017 26.5306 20.4501 25.9855L21.3704 24.2099ZM27.679 27.8797C28.6999 28.5426 29.7044 29.2306 30.691 29.9431L29.52 31.5645C28.5604 30.8714 27.5832 30.2022 26.5899 29.5572L27.679 27.8797ZM33.5968 32.1548C34.5469 32.9166 35.4775 33.7024 36.3872 34.5116L35.0579 36.0059C34.1739 35.2195 33.2694 34.4558 32.3457 33.7151L33.5968 32.1548ZM25.4494 52.8002C25.4169 52.0427 25.5272 51.2968 25.7496 50.5939L27.6564 51.1971C27.5024 51.6841 27.4288 52.1863 27.4463 52.6837C27.5017 53.1753 27.6438 53.6529 27.8595 54.1051L26.0543 54.9661C25.7434 54.3143 25.5323 53.6067 25.4539 52.8621L25.4507 52.8312L25.4494 52.8002ZM30.1912 46.0441C29.4841 46.268 28.8281 46.6194 28.2455 47.0611L29.4537 48.6549C29.874 48.3363 30.3343 48.0941 30.8138 47.9449L30.8417 47.9362L30.869 47.9259C31.3883 47.7304 31.9163 47.6129 32.4457 47.5636L32.2605 45.5722C31.5687 45.6365 30.8746 45.7895 30.1912 46.0441ZM39.0529 37.0101C39.4862 37.4382 39.9139 37.8719 40.3358 38.3113L40.3482 38.3242L40.3602 38.3376C40.4581 38.4472 40.5576 38.5581 40.6582 38.6703C40.977 39.0259 41.3065 39.3934 41.6294 39.7656L40.1186 41.0761C39.8076 40.7176 39.4935 40.3673 39.1772 40.0145C39.0786 39.9046 38.9799 39.7944 38.8809 39.6837C38.4753 39.2615 38.064 38.8446 37.6474 38.4331L39.0529 37.0101ZM30.7959 58.9735C30.1244 58.7748 29.4789 58.478 28.8838 58.1025L29.951 56.4111C30.4042 56.697 30.8895 56.9177 31.3841 57.0617L31.4125 57.07L31.4405 57.08C32.2473 57.3679 33.0848 57.5322 33.9248 57.5795L33.8124 59.5763C32.7971 59.5191 31.7801 59.3217 30.7959 58.9735ZM36.42 46.1947C37.071 46.4481 37.6932 46.7663 38.2751 47.1343C38.848 47.4966 39.3905 47.9041 39.9019 48.3459L38.5945 49.8594C38.1519 49.4771 37.6886 49.1298 37.206 48.8246C36.7278 48.5221 36.2202 48.2631 35.6944 48.0584L36.42 46.1947ZM44.8114 44.8913C44.6036 44.2196 44.3184 43.5861 43.9854 42.9874L42.2375 43.9594C42.519 44.4656 42.7465 44.9781 42.9069 45.5025L42.9149 45.5286L42.9243 45.5542C43.2048 46.3194 43.3595 47.1437 43.3944 47.9918L45.3927 47.9095C45.3504 46.8828 45.1636 45.8609 44.8114 44.8913ZM41.7904 53.7436C41.5037 54.1763 41.1839 54.5768 40.8351 54.9367L40.8299 54.9422C40.2501 55.5496 39.5749 56.0631 38.8337 56.4719L39.7997 58.2231C40.7098 57.7211 41.5481 57.0858 42.2741 56.3257C42.4893 56.1035 42.6942 55.8706 42.8886 55.6283C42.8993 55.6483 42.91 55.6682 42.9206 55.6882L44.6854 54.7473C44.3592 54.1354 44.0121 53.5358 43.6443 52.95C43.3194 52.3909 42.9639 51.8391 42.5788 51.3036L40.9552 52.4715C41.2525 52.8849 41.5312 53.3106 41.7904 53.7436ZM46.3946 58.5625C46.8754 59.8639 47.2725 61.2015 47.5843 62.5629L45.6348 63.0095C45.3418 61.7302 44.969 60.475 44.5185 59.2556L46.3946 58.5625ZM48.2598 66.6775C48.3993 68.0577 48.4542 69.4501 48.4229 70.8427L46.4234 70.7977C46.4529 69.4874 46.4012 68.1773 46.27 66.8786L48.2598 66.6775ZM48.0702 74.9977C47.9681 75.6855 47.8443 76.3707 47.6983 77.0517L47.6973 77.0562C47.5308 77.8164 47.3356 78.5683 47.1132 79.3106L45.1973 78.7366C45.4053 78.0426 45.5876 77.3403 45.7431 76.6307C45.8799 75.9923 45.9961 75.3497 46.0919 74.7041L48.0702 74.9977ZM40.3942 91.4158C39.8857 92 39.3573 92.5665 38.8103 93.114L37.3955 91.7003C37.9101 91.1853 38.4073 90.6523 38.8858 90.1026L40.3942 91.4158ZM45.4547 83.6549C44.7975 85.0605 44.0405 86.4168 43.1943 87.713L41.5196 86.6198C42.3152 85.401 43.0262 84.1269 43.6429 82.8078L45.4547 83.6549Z" fill="#C9D4E2"/>
<path d="M8.70143 14.4594C9.6104 15.3692 9.32853 16.7738 7.96927 17.5639C6.65182 18.5083 5.65687 19.1149 4.78971 18.3594C3.97868 17.5055 4.55438 16.2685 5.24236 14.8346C6.00081 13.0496 7.73632 13.6481 8.70143 14.4594Z" fill="#DAE2EB"/>
<path d="M4.2349 24.5656C5.39708 24.5762 6.77066 23.5334 6.45054 22.0464C6.08861 20.4051 5.90824 19.1282 4.64811 19.0617C3.48593 19.0511 3.33067 20.0061 2.57222 21.7911C2.08013 23.3367 2.91864 24.5976 4.2349 24.5656Z" fill="#DAE2EB"/>
<path d="M3.08122 18.168C3.37624 17.4231 4.16098 16.9576 4.86091 17.0959C5.11294 17.1092 5.4629 17.1783 5.65879 17.2901C7.14228 17.8752 8.03692 19.0377 7.68577 19.881C7.37642 20.8786 5.89175 21.2058 4.56234 20.5781C4.17056 20.3546 3.97468 20.2429 3.68085 20.0753C3.05138 19.5859 2.78621 18.9129 3.08122 18.168C3.13736 18.0696 3.08122 18.168 3.08122 18.168Z" fill="#989FB0"/>
<path d="M105.44 60.0978L96.772 114.938C96.0534 115.387 95.3347 115.791 94.6161 116.196C93.3585 116.914 92.056 117.543 90.7086 118.172C88.9569 118.98 87.1604 119.699 85.3638 120.328C84.1511 120.732 82.8935 121.136 81.6359 121.495C79.9292 121.945 78.1326 122.349 76.381 122.663C75.1683 122.888 73.9556 123.067 72.7429 123.202C71.0362 123.382 69.3744 123.517 67.6227 123.561C66.9939 123.561 66.41 123.606 65.7812 123.606C65.1974 123.606 64.6135 123.606 64.0296 123.561C62.4576 123.517 60.9305 123.427 59.4034 123.247C58.1908 123.112 56.9781 122.933 55.7654 122.753C53.9688 122.439 52.2172 122.079 50.5104 121.63C49.2528 121.316 48.0402 120.912 46.7826 120.507C44.9411 119.878 43.1894 119.205 41.4378 118.441C40.1353 117.857 38.8328 117.229 37.5303 116.555C36.6769 116.106 35.8684 115.657 35.06 115.163L26.0771 61.6698L36.2727 60.1427H105.44V60.0978Z" fill="url(#paint0_linear)"/>
<path d="M41.528 118.441C40.2255 117.857 38.923 117.229 37.6205 116.555L31.0181 67.1494C30.8834 66.1612 31.5571 65.263 32.5452 65.1282C33.5333 64.9935 34.4316 65.6672 34.5663 66.6553L41.528 118.441Z" fill="black"/>
<path d="M50.5559 121.63C49.2983 121.316 48.0856 120.912 46.828 120.507L41.8425 67.0595C41.7527 66.0714 42.4713 65.218 43.4595 65.1282C44.4476 65.0384 45.3458 65.757 45.3908 66.7451L50.5559 121.63Z" fill="black"/>
<path d="M59.449 123.247C58.2363 123.112 57.0237 122.933 55.811 122.753L53.0712 67.0145C53.0263 66.0264 53.7898 65.173 54.778 65.1281C55.7661 65.0832 56.6194 65.8467 56.6644 66.8348L59.449 123.247Z" fill="black"/>
<path d="M101.219 67.1493L94.6165 116.195C93.3589 116.914 92.0564 117.543 90.709 118.172L97.6707 66.7001C97.8054 65.712 98.7037 65.0383 99.6918 65.173C100.68 65.2629 101.354 66.1611 101.219 67.1493Z" fill="black"/>
<path d="M90.3501 67.1044L85.4095 120.328C84.1968 120.732 82.9392 121.136 81.6816 121.495L86.8019 66.79C86.8917 65.8019 87.7451 65.0833 88.7332 65.1731C89.7213 65.2629 90.4848 66.1163 90.3501 67.1044Z" fill="black"/>
<path d="M79.1659 67.0145L76.4261 122.663C75.2134 122.888 74.0008 123.067 72.7881 123.202L75.5728 66.8348C75.6177 65.8467 76.471 65.0832 77.4592 65.1281C78.4473 65.173 79.2108 66.0264 79.1659 67.0145Z" fill="black"/>
<path d="M67.6683 66.9247V123.561C67.0395 123.561 66.4557 123.606 65.8269 123.606C65.243 123.606 64.6591 123.606 64.0752 123.561V66.9247C64.0752 65.9366 64.8837 65.1282 65.8718 65.1282C66.9048 65.1282 67.6683 65.9366 67.6683 66.9247Z" fill="black"/>
<path d="M104.354 65.0362L103.243 68.4532L113.708 71.8546L114.819 68.4375L104.354 65.0362Z" fill="#A9B3C4"/>
<path d="M27.2802 65.0442L16.8154 68.4456L17.9261 71.8626L28.3908 68.4613L27.2802 65.0442Z" fill="#A9B3C4"/>
<path d="M41.528 118.441C40.2255 117.857 38.923 117.229 37.6205 116.555L31.0181 67.1494C30.8834 66.1612 31.5571 65.263 32.5452 65.1282C33.5333 64.9935 34.4316 65.6672 34.5663 66.6553L41.528 118.441Z" fill="url(#paint1_linear)"/>
<path d="M50.5558 121.63C49.2982 121.316 48.0855 120.912 46.8279 120.507L41.8424 67.0595C41.7526 66.0714 42.4712 65.218 43.4593 65.1282C44.4474 65.0383 45.3457 65.757 45.3906 66.7451L50.5558 121.63Z" fill="url(#paint2_linear)"/>
<path d="M59.4488 123.247C58.2361 123.112 57.0234 122.933 55.8107 122.753L53.071 67.0145C53.026 66.0264 53.7896 65.1731 54.7777 65.1281C55.7658 65.0832 56.6192 65.8468 56.6641 66.8349L59.4488 123.247Z" fill="url(#paint3_linear)"/>
<path d="M67.668 66.9247V123.561C67.0392 123.561 66.4553 123.606 65.8265 123.606C65.2427 123.606 64.6588 123.606 64.0749 123.561V66.9247C64.0749 65.9366 64.8833 65.1282 65.8714 65.1282C66.9045 65.1282 67.668 65.9366 67.668 66.9247Z" fill="url(#paint4_linear)"/>
<path d="M79.166 67.0145L76.4263 122.663C75.2136 122.888 74.0009 123.067 72.7882 123.202L75.5729 66.8349C75.6178 65.8468 76.4712 65.0832 77.4593 65.1281C78.4474 65.1731 79.211 66.0264 79.166 67.0145Z" fill="url(#paint5_linear)"/>
<path d="M90.3497 67.1044L85.4091 120.328C84.1965 120.732 82.9389 121.136 81.6813 121.495L86.8015 66.79C86.8913 65.8019 87.7447 65.0833 88.7328 65.1731C89.7209 65.263 90.4844 66.1163 90.3497 67.1044Z" fill="url(#paint6_linear)"/>
<path d="M101.219 67.1493L94.6165 116.196C93.3589 116.914 92.0564 117.543 90.709 118.172L97.6707 66.7002C97.8054 65.7121 98.7037 65.0383 99.6918 65.1731C100.68 65.2629 101.354 66.1612 101.219 67.1493Z" fill="url(#paint7_linear)"/>
<g filter="url(#filter0_d)">
<path d="M105.621 61.6698H26.1228C25.2694 61.6698 24.5957 60.996 24.5957 60.1427C24.5957 59.2893 25.2694 58.6156 26.1228 58.6156H105.621C106.474 58.6156 107.148 59.2893 107.148 60.1427C107.148 60.9511 106.474 61.6698 105.621 61.6698Z" fill="url(#paint8_linear)"/>
</g>
<path d="M118.441 36.8654C117.296 36.5023 116.875 35.2323 117.566 33.8091C118.258 32.3859 118.793 31.2312 120.024 31.5891C121.082 31.9574 121.165 33.3341 121.258 34.8829C121.291 36.8671 119.413 37.2388 118.441 36.8654Z" fill="#DAE2EB"/>
<path d="M117.446 26.0443C116.353 26.5417 115.839 28.0406 116.777 29.2796C117.892 30.5943 118.556 31.5907 119.73 31.0021C120.823 30.5048 120.508 29.5738 120.222 27.6911C119.876 26.2439 118.539 25.547 117.446 26.0443Z" fill="#DAE2EB"/>
<path d="M120.268 32.7833C120.015 32.8849 119.762 32.9864 119.504 33.0019C118.138 33.2566 116.897 32.7266 116.759 31.8713C116.621 31.0161 117.694 30.1745 119.151 30.0007C119.49 29.894 119.834 29.8733 120.098 29.9439C120.705 29.9938 121.252 30.4791 121.294 31.1674C121.421 31.8506 120.946 32.5699 120.268 32.7833Z" fill="#989FB0"/>
<path d="M90.9455 57.859C90.0468 38.5696 106.424 32.319 115.459 31.7767" stroke="#C9D4E2" stroke-width="2" stroke-miterlimit="10" stroke-dasharray="4 4"/>
</g>
<defs>
<filter id="filter0_d" x="22.5957" y="58.6156" width="86.5522" height="7.05416" filterUnits="userSpaceOnUse" color-interpolation-filters="sRGB">
<feFlood flood-opacity="0" result="BackgroundImageFix"/>
<feColorMatrix in="SourceAlpha" type="matrix" values="0 0 0 0 0 0 0 0 0 0 0 0 0 0 0 0 0 0 127 0" result="hardAlpha"/>
<feOffset dy="2"/>
<feGaussianBlur stdDeviation="1"/>
<feColorMatrix type="matrix" values="0 0 0 0 0.397708 0 0 0 0 0.47749 0 0 0 0 0.575 0 0 0 0.15 0"/>
<feBlend mode="normal" in2="BackgroundImageFix" result="effect1_dropShadow"/>
<feBlend mode="normal" in="SourceGraphic" in2="effect1_dropShadow" result="shape"/>
</filter>
<linearGradient id="paint0_linear" x1="65.7651" y1="62.304" x2="65.7651" y2="97.9507" gradientUnits="userSpaceOnUse">
<stop stop-color="#B0BACC"/>
<stop offset="1" stop-color="#969EAE"/>
</linearGradient>
<linearGradient id="paint1_linear" x1="74.6166" y1="101.52" x2="77.1328" y2="66.7963" gradientUnits="userSpaceOnUse">
<stop offset="0.869792" stop-color="#657C99"/>
<stop offset="1" stop-color="#526E91"/>
</linearGradient>
<linearGradient id="paint2_linear" x1="74.6166" y1="101.52" x2="77.1328" y2="66.7963" gradientUnits="userSpaceOnUse">
<stop offset="0.869792" stop-color="#657C99"/>
<stop offset="1" stop-color="#526E91"/>
</linearGradient>
<linearGradient id="paint3_linear" x1="74.6166" y1="101.52" x2="77.1328" y2="66.7963" gradientUnits="userSpaceOnUse">
<stop offset="0.869792" stop-color="#657C99"/>
<stop offset="1" stop-color="#526E91"/>
</linearGradient>
<linearGradient id="paint4_linear" x1="74.6166" y1="101.52" x2="77.1328" y2="66.7963" gradientUnits="userSpaceOnUse">
<stop offset="0.869792" stop-color="#657C99"/>
<stop offset="1" stop-color="#526E91"/>
</linearGradient>
<linearGradient id="paint5_linear" x1="74.6166" y1="101.52" x2="77.1328" y2="66.7963" gradientUnits="userSpaceOnUse">
<stop offset="0.869792" stop-color="#657C99"/>
<stop offset="1" stop-color="#526E91"/>
</linearGradient>
<linearGradient id="paint6_linear" x1="74.6166" y1="101.52" x2="77.1328" y2="66.7963" gradientUnits="userSpaceOnUse">
<stop offset="0.869792" stop-color="#657C99"/>
<stop offset="1" stop-color="#526E91"/>
</linearGradient>
<linearGradient id="paint7_linear" x1="74.6166" y1="101.52" x2="77.1328" y2="66.7963" gradientUnits="userSpaceOnUse">
<stop offset="0.869792" stop-color="#657C99"/>
<stop offset="1" stop-color="#526E91"/>
</linearGradient>
<linearGradient id="paint8_linear" x1="65.8449" y1="58.545" x2="65.8449" y2="61.7027" gradientUnits="userSpaceOnUse">
<stop stop-color="#CED8EA"/>
<stop offset="0.9964" stop-color="#ADB7C9"/>
</linearGradient>
</defs>
</svg>
