<svg width="24" height="24" viewBox="0 0 24 24" fill="none" xmlns="http://www.w3.org/2000/svg">
<path d="M17.6569 14.828L16.2429 13.414L17.6569 12C18.0283 11.6286 18.323 11.1876 18.524 10.7023C18.725 10.217 18.8285 9.69679 18.8285 9.17149C18.8285 8.64619 18.725 8.12604 18.524 7.64072C18.323 7.15541 18.0283 6.71444 17.6569 6.34299C17.2855 5.97155 16.8445 5.6769 16.3592 5.47588C15.8739 5.27486 15.3537 5.17139 14.8284 5.17139C14.3031 5.17139 13.7829 5.27486 13.2976 5.47588C12.8123 5.6769 12.3713 5.97155 11.9999 6.34299L10.5859 7.75699L9.1719 6.34299L10.5859 4.92899C11.7142 3.81891 13.2355 3.19965 14.8183 3.20609C16.4011 3.21254 17.9173 3.84417 19.0365 4.9634C20.1557 6.08264 20.7874 7.59879 20.7938 9.18161C20.8002 10.7644 20.181 12.2857 19.0709 13.414L17.6569 14.828ZM14.8279 17.657L13.4139 19.071C12.8584 19.6356 12.1967 20.0846 11.4668 20.3922C10.7369 20.6998 9.95332 20.8598 9.16128 20.863C8.36925 20.8662 7.58441 20.7126 6.85204 20.411C6.11967 20.1094 5.45427 19.6657 4.89421 19.1057C4.33415 18.5456 3.89052 17.8802 3.58891 17.1479C3.2873 16.4155 3.13368 15.6306 3.1369 14.8386C3.14013 14.0466 3.30014 13.263 3.6077 12.5331C3.91527 11.8032 4.3643 11.1415 4.9289 10.586L6.3429 9.17199L7.7569 10.586L6.3429 12C5.97146 12.3714 5.67681 12.8124 5.47579 13.2977C5.27477 13.783 5.1713 14.3032 5.1713 14.8285C5.1713 15.3538 5.27477 15.874 5.47579 16.3593C5.67681 16.8446 5.97146 17.2856 6.3429 17.657C6.71435 18.0284 7.15531 18.3231 7.64063 18.5241C8.12594 18.7251 8.6461 18.8286 9.1714 18.8286C9.6967 18.8286 10.2169 18.7251 10.7022 18.5241C11.1875 18.3231 11.6285 18.0284 11.9999 17.657L13.4139 16.243L14.8279 17.657ZM5.7749 2.29299L7.7069 1.77499L8.7419 5.63999L6.8109 6.15799L5.7749 2.29299ZM15.2579 18.361L17.1889 17.843L18.2249 21.707L16.2929 22.225L15.2579 18.361ZM2.2929 5.77499L6.1569 6.81099L5.6389 8.74199L1.7749 7.70699L2.2929 5.77499ZM18.3609 15.258L22.2249 16.293L21.7069 18.225L17.8429 17.189L18.3609 15.258Z" fill="black"/>
</svg>
