<svg width="72" height="72" viewBox="0 0 72 72" fill="none" xmlns="http://www.w3.org/2000/svg">
<path d="M70.4083 45.5149C70.4083 52.4928 64.7989 58.1054 57.8251 58.1054C57.8251 58.1054 57.6735 58.1054 54.3382 58.1054C52.9738 58.1054 51.3061 58.1054 48.8804 58.1054C42.8163 58.1054 32.8104 58.1054 16.1339 58.1054C7.7956 58.4088 1.125 51.5826 1.125 43.5429C1.125 35.3516 7.7956 28.6771 16.2855 28.9805C23.5625 6.22664 56.7639 9.41218 59.6444 32.9245C65.7085 33.8346 70.4083 39.1439 70.4083 45.5149Z" fill="url(#paint0_linear)"/>
<path d="M57.8251 58.1057C64.7746 58.1057 70.4083 52.4688 70.4083 45.5153C70.4083 38.5618 64.7746 32.9248 57.8251 32.9248C50.8756 32.9248 45.2419 38.5618 45.2419 45.5153C45.2419 52.4688 50.8756 58.1057 57.8251 58.1057Z" fill="url(#paint1_linear)"/>
<path d="M37.3586 58.1053C49.6667 58.1053 59.6444 48.1219 59.6444 35.8066C59.6444 23.4913 49.6667 13.5078 37.3586 13.5078C25.0504 13.5078 15.0727 23.4913 15.0727 35.8066C15.0727 48.1219 25.0504 58.1053 37.3586 58.1053Z" fill="url(#paint2_linear)"/>
<path d="M64.1927 52.7962L54.3384 58.1054C52.9739 58.1054 51.3063 58.1054 48.8806 58.1054L35.691 44.9082L38.2683 43.2396L37.3587 32.7728L42.21 30.8008L64.1927 52.7962Z" fill="url(#paint3_linear)"/>
<path d="M36.1458 27.3119L28.8687 34.5931C28.1107 35.3516 28.1107 36.5652 28.8687 37.3236C29.6268 38.0821 30.8396 38.0821 31.446 37.3236L35.5393 33.2279V44.1498C35.5393 45.2116 36.449 45.9701 37.3586 45.9701C38.4198 45.9701 39.1779 45.0599 39.1779 44.1498V33.2279L43.2712 37.3236C44.0292 38.0821 45.242 38.0821 46.0001 37.3236C46.7581 36.5652 46.7581 35.3516 46.0001 34.7448L38.723 27.4636C38.1166 26.5535 36.9038 26.5535 36.1458 27.3119Z" fill="url(#paint4_linear)"/>
<defs>
<linearGradient id="paint0_linear" x1="35.7328" y1="13.3445" x2="35.7328" y2="58.0478" gradientUnits="userSpaceOnUse">
<stop stop-color="#6A82A1"/>
<stop offset="1" stop-color="#395982"/>
</linearGradient>
<linearGradient id="paint1_linear" x1="43.973" y1="30.3368" x2="55.1258" y2="42.4964" gradientUnits="userSpaceOnUse">
<stop stop-color="#526E91"/>
<stop offset="0.9999" stop-color="#728FB3" stop-opacity="0.0104167"/>
<stop offset="1" stop-color="#9CA3AF" stop-opacity="0"/>
</linearGradient>
<linearGradient id="paint2_linear" x1="20.5194" y1="22.8017" x2="35.7638" y2="35.5297" gradientUnits="userSpaceOnUse">
<stop stop-color="#526E91"/>
<stop offset="1" stop-color="#8397B1" stop-opacity="0"/>
</linearGradient>
<linearGradient id="paint3_linear" x1="38.4354" y1="37.3069" x2="53.1561" y2="52.0192" gradientUnits="userSpaceOnUse">
<stop stop-color="#204472"/>
<stop offset="1" stop-color="#3E6291" stop-opacity="0"/>
</linearGradient>
<linearGradient id="paint4_linear" x1="42.7328" y1="41.7257" x2="32.1409" y2="31.1398" gradientUnits="userSpaceOnUse">
<stop offset="0.0113208" stop-color="#C2D1FF"/>
<stop offset="1" stop-color="white"/>
</linearGradient>
</defs>
</svg>
