<svg width="32" height="32" viewBox="0 0 32 32" fill="none" xmlns="http://www.w3.org/2000/svg">
<path d="M28.7498 8.82527L29.0001 28.3965C29.0001 29.0544 28.4161 29.63 27.7487 29.63H8.47814C7.81076 29.63 7.22681 29.0544 7.22681 28.3965V3.23348C7.22681 2.57563 7.81076 2 8.47814 2H22.4931L28.7498 8.82527Z" fill="#DDE3EB"/>
<path d="M28.7828 14.094L23.2881 8.2555L27.5148 7.83847L28.7828 8.67254V14.094Z" fill="#C5CBD7"/>
<path d="M22.4429 2L22.7599 7.42732C22.7599 8.16741 23.4273 8.82527 24.1781 8.82527L28.783 8.67255" fill="#9CA3AF"/>
<path d="M22.4201 27.0221H4.71354C3.85677 27.0221 3 26.3444 3 25.3956V17.8056C3 16.9924 3.71397 16.1792 4.71354 16.1792H22.4201C23.2769 16.1792 24.1337 16.8569 24.1337 17.8056V25.3956C23.9909 26.3444 23.2769 27.0221 22.4201 27.0221Z" fill="#297D4F"/>
<path d="M8.41603 21.5171L6.80371 19.0149H8.05774L9.13262 20.8269L10.2075 19.0149H11.3719L9.8492 21.4308L11.4615 23.8468H10.2075L9.04304 22.1211L7.87859 23.8468H6.80371L8.41603 21.5171Z" fill="white"/>
<path d="M15.5825 23.9331H12.2683V19.0149H13.3432V23.0702H15.5825V23.9331Z" fill="white"/>
<path d="M17.1948 22.5533C17.2844 22.9847 17.7322 23.2435 18.3592 23.2435C18.8967 23.2435 19.3445 22.9847 19.3445 22.6395C19.3445 22.2944 19.0758 22.1218 18.4488 22.0356L17.9114 21.9493C16.9261 21.7767 16.3886 21.259 16.3886 20.5687C16.3886 19.7059 17.1948 19.1019 18.3592 19.1019C19.5237 18.9294 20.2403 19.5334 20.2403 20.4825H19.255C19.255 20.0511 18.8071 19.7922 18.2697 19.7922C17.7322 19.7922 17.3739 20.0511 17.3739 20.3962C17.3739 20.7413 17.6426 20.9139 18.2697 21.0002L18.8071 21.0864C19.882 21.259 20.3298 21.6904 20.3298 22.467C20.3298 23.4161 19.5237 24.0201 18.2697 24.0201C17.0156 24.0201 16.2095 23.4161 16.2095 22.5533H17.1948Z" fill="white"/>
</svg>
